<svg xmlns="http://www.w3.org/2000/svg" width="62" height="78" fill="currentColor"><path fill-rule="evenodd" d="M29.056.218c-.889.336-2.217 1.38-3.555 2.792-.603.636-1.17 1.202-1.261 1.259-.091.056-1.156-.163-2.367-.486-1.286-.343-2.606-.587-3.175-.588-1.938-.001-3.858 1.143-4.76 2.835-.242.455-.691 1.785-.998 2.957-.306 1.17-.576 2.153-.6 2.182-.024.03-1.029.324-2.233.655-1.205.332-2.562.803-3.018 1.05-1.513.816-2.585 2.462-2.773 4.256-.082.786.007 1.4.452 3.105.305 1.168.588 2.278.628 2.465.054.252-.376.796-1.651 2.087-2.215 2.244-2.645 3.084-2.636 5.154.008 1.986.368 2.675 2.606 4.977l1.774 1.825-.637 2.433c-.71 2.714-.735 3.734-.124 5.115.425.961 1.415 2.069 2.323 2.6.383.223 1.687.678 2.9 1.01 1.211.332 2.258.662 2.326.733.068.072.37 1.05.669 2.175.3 1.124.722 2.39.938 2.811.761 1.489 2.266 2.574 4.015 2.898 1.053.194 1.639.108 4.44-.654l1.816-.493 1.676 1.687c2.17 2.184 3.275 2.777 5.161 2.772 1.918-.006 2.862-.505 5.106-2.698L37.9 55.37l2.044.58c2.691.765 4.045.804 5.46.158 1.208-.551 2.176-1.44 2.713-2.489.216-.422.638-1.687.937-2.81.3-1.125.601-2.104.67-2.175.067-.072 1.114-.402 2.326-.734 2.472-.677 3.304-1.095 4.239-2.13.822-.91 1.261-1.91 1.392-3.166.086-.822-.007-1.42-.533-3.428l-.637-2.434 1.775-1.825c2.237-2.302 2.598-2.99 2.606-4.977.008-2.046-.405-2.856-2.634-5.17l-1.742-1.81.572-2.09c.73-2.663.762-4.05.126-5.419-.935-2.01-1.977-2.721-5.334-3.642-1.204-.33-2.205-.62-2.225-.646-.02-.027-.288-1.006-.595-2.177-.306-1.172-.755-2.502-.998-2.957-.902-1.692-2.822-2.836-4.76-2.835-.569 0-1.89.246-3.18.59-1.214.324-2.224.573-2.245.553l-1.823-1.76C33.825.429 33.126.059 31.171.006c-.954-.026-1.676.047-2.115.213Zm9.854 20.423c-.347.152-2.172 2.208-5.441 6.134l-4.92 5.906-2.565-2.554c-1.41-1.405-2.78-2.635-3.044-2.733a2.717 2.717 0 0 0-3.516 3.515c.209.56 7.341 7.79 8.063 8.173.695.368 1.832.345 2.515-.05.658-.381 12.134-13.992 12.51-14.836 1.01-2.276-1.3-4.557-3.602-3.555ZM5.873 50.585c-.045.123-1.202 4.402-2.57 9.508C.635 70.053.548 70.543 1.285 71.56c.405.56 1.54 1.14 2.226 1.14.281 0 2.806-.842 5.61-1.871 2.805-1.03 5.182-1.873 5.284-1.874.102-.001 1.77 1.899 3.707 4.221 1.937 2.323 3.744 4.355 4.015 4.515 1.11.655 2.795.234 3.611-.902.23-.32 2.729-9.204 3.646-12.966.101-.416.054-.459-.714-.652-1.349-.34-3.066-1.354-4.398-2.598l-1.252-1.17-1.419.377c-3.752.996-7.242.02-9.669-2.703-.986-1.106-1.646-2.406-2.142-4.217l-.371-1.356-1.518-.437c-.834-.24-1.614-.497-1.731-.57-.126-.08-.248-.042-.297.09Zm49.948-.094c-.063.063-.814.315-1.67.561l-1.556.447-.41 1.421c-.55 1.903-1.138 3.057-2.117 4.156-2.427 2.723-5.916 3.699-9.669 2.703l-1.418-.376-1.253 1.17c-1.331 1.243-3.049 2.258-4.398 2.597-.768.194-.815.236-.713.652.937 3.84 3.412 12.645 3.644 12.966.825 1.143 2.503 1.557 3.624.895.277-.164 2.083-2.196 4.013-4.515 1.929-2.319 3.592-4.215 3.695-4.214.103.001 2.482.844 5.286 1.874 2.804 1.03 5.33 1.872 5.61 1.872.687 0 1.821-.581 2.227-1.14.736-1.017.65-1.503-2.038-11.552-1.378-5.153-2.56-9.428-2.625-9.5-.065-.072-.17-.08-.232-.017Z" clip-rule="evenodd"/></svg>