<svg xmlns="http://www.w3.org/2000/svg" width="86" height="78" fill="currentColor"><path fill-rule="evenodd" d="M14.558.101c-1.996.482-3.79 2.31-4.263 4.348l-.105.452 26.095.045c24.855.043 26.138.06 27.005.35 3.647 1.223 6.222 3.802 7.375 7.386.245.76.304 1.696.359 5.714l.066 4.804 1.6.717 2.472 1.109.873.392-.046-10.627c-.045-10.522-.05-10.635-.406-11.408-.505-1.094-1.746-2.358-2.844-2.898l-.93-.457L43.44.003c-15.602-.014-28.6.03-28.883.098Zm-9.924 9.925c-1.57.378-3.218 1.758-3.92 3.282-.316.685-.367 1.125-.416 3.633l-.055 2.853h65.886l-.056-2.853c-.049-2.508-.099-2.948-.415-3.633-.504-1.094-1.745-2.359-2.844-2.898l-.93-.457-28.367-.026c-15.602-.014-28.6.03-28.883.099ZM.27 27.238v2.48l20.634-.001 20.635-.002.91-.43c.5-.236 2.791-1.275 5.091-2.308 2.3-1.034 4.31-1.954 4.466-2.045.19-.11-8.286-.167-25.726-.17L.27 24.756v2.482Zm52.776 2.645c-5.406 2.456-9.997 4.622-10.2 4.813-.749.704-.75.731-.683 11.248.06 9.46.082 10.067.41 11.414.862 3.535 2.308 6.34 4.342 8.419 1.453 1.486 14.876 11.7 15.847 12.058 1.209.447 1.354.36 8.746-5.24 3.81-2.885 7.246-5.507 7.634-5.825 1.089-.894 2.77-3.073 3.57-4.63 1.429-2.78 2.023-5.403 2.248-9.926.165-3.31.178-18.24.015-17.07l-.1.711-.22-.502a2.319 2.319 0 0 0-.66-.816c-.244-.172-4.76-2.267-10.037-4.655-6.92-3.133-9.8-4.36-10.337-4.404-.679-.054-1.616.336-10.575 4.405ZM.437 42.827l.002 8.146.387.827c.506 1.083 1.618 2.18 2.752 2.714l.91.43 16.416.043 16.417.044V34.68H.435l.002 8.146Zm72.033-.374c-.403.2-2.695 2.362-5.866 5.535L61.4 53.197l-2.322-2.284c-2.496-2.455-2.88-2.673-4.093-2.322-.706.204-1.003.442-1.433 1.146-.406.666-.449 1.437-.122 2.194.126.293 1.708 1.996 3.515 3.786 2.776 2.749 3.38 3.27 3.905 3.367 1.502.277 1.342.403 8.206-6.427 7.36-7.323 7.451-7.45 6.63-9.146-.248-.511-.534-.798-1.045-1.045-.88-.426-1.333-.428-2.171-.012Z" clip-rule="evenodd"/></svg>