<svg xmlns="http://www.w3.org/2000/svg" width="79" height="78" fill="currentColor"><path fill-rule="evenodd" d="M25.284.17c-.603.28-1.143.854-1.372 1.459-.107.28-.174 2.06-.174 4.598v4.14h5.222l-.048-4.383c-.045-4.133-.067-4.41-.383-4.832a4.537 4.537 0 0 0-.761-.767c-.54-.403-1.835-.515-2.484-.214Zm26.036 0c-.602.28-1.143.854-1.372 1.459-.106.28-.173 2.06-.173 4.598v4.14h5.222l-.048-4.383c-.046-4.133-.068-4.41-.384-4.832a4.537 4.537 0 0 0-.76-.767c-.54-.403-1.836-.515-2.485-.214ZM38.302 2.776c-.602.28-1.143.853-1.372 1.458-.099.261-.174 1.681-.174 3.296v2.838h5.227l-.05-3.081c-.055-3.36-.096-3.512-1.147-4.297-.54-.403-1.835-.514-2.484-.214ZM21.804 13.229c-2.751.74-4.908 2.929-5.634 5.715-.37 1.42-.364 36.141.006 37.563a7.945 7.945 0 0 0 5.722 5.705c1.398.364 33.526.364 34.924 0a7.945 7.945 0 0 0 5.722-5.705c.216-.831.249-3.302.249-18.794 0-15.49-.033-17.962-.25-18.793a7.945 7.945 0 0 0-5.721-5.705c-1.373-.358-33.685-.345-35.018.014ZM1.844 23.62c-1.526.664-2.005 2.74-.93 4.02.786.934.969.959 6.953.959h5.456V23.39l-5.492.007c-4.197.005-5.609.057-5.988.222Zm63.552 4.991 5.684-.047c5.449-.044 5.703-.06 6.133-.382.854-.638 1.12-1.158 1.12-2.187 0-1.03-.266-1.55-1.12-2.188-.43-.322-.684-.337-6.133-.382l-5.684-.047v5.233Zm-60.95 8.03c-1.524.664-2.004 2.742-.928 4.02.762.906 1.08.96 5.65.96h4.155v-5.209l-4.19.007c-3.114.004-4.317.061-4.686.222Zm60.95 4.995 4.382-.048c4.132-.046 4.408-.068 4.832-.384.853-.638 1.12-1.158 1.12-2.187 0-1.03-.267-1.55-1.12-2.188-.424-.316-.7-.338-4.832-.384l-4.382-.048v5.239ZM1.843 47.058c-1.525.664-2.004 2.741-.929 4.02.786.934.969.96 6.953.96h5.456v-5.21l-5.492.007c-4.197.005-5.609.057-5.988.223Zm63.553 7.596 5.684-.047c5.449-.044 5.703-.06 6.133-.382.854-.638 1.12-1.158 1.12-2.188 0-1.029-.266-1.549-1.12-2.187-.43-.322-.684-.337-6.133-.382l-5.684-.047v5.233Zm-41.623 16.09c.044 5.45.06 5.705.382 6.135.638.855 1.158 1.121 2.187 1.121s1.549-.266 2.187-1.12c.321-.431.337-.685.382-6.135l.046-5.686h-5.23l.046 5.686Zm13.016-1.301c.046 4.133.068 4.409.384 4.832.638.854 1.158 1.12 2.187 1.12s1.549-.266 2.187-1.12c.316-.423.338-.7.383-4.832l.049-4.383H36.74l.048 4.383Zm13.02 1.302c.045 5.45.06 5.704.382 6.134.638.855 1.158 1.121 2.187 1.121 1.03 0 1.55-.266 2.187-1.12.322-.431.337-.685.382-6.135l.047-5.686h-5.231l.046 5.686Z" clip-rule="evenodd"/></svg>