<svg xmlns="http://www.w3.org/2000/svg" width="24" height="24" fill="currentColor"><g clip-path="url(#a)"><path fill="#fff" fill-rule="evenodd" d="M2.58-.103a1.47 1.47 0 0 0-.879.768L1.59.9v21.926l.111.234a1.5 1.5 0 0 0 .674.684l.224.114H13.02l.268-.132c.323-.158.566-.428.694-.77.093-.249.094-.352.094-11.093s0-10.844-.093-11.094a1.389 1.389 0 0 0-.694-.77l-.268-.132L7.88-.14c-3.228-.005-5.2.01-5.3.038Zm11.369.22c.145.155.269.395.269.52 0 .051.019.105.042.12.1.062 7.63 2.791 7.65 2.772.042-.042-.139-.434-.247-.537-.07-.065-1.567-.65-3.972-1.552C14.493.24 13.851.014 13.95.118ZM2.75.616c-.227.081-.291.137-.383.33-.067.142-.074 1.174-.074 10.926 0 10.415.003 10.774.087 10.932.048.09.16.206.247.257.156.093.243.094 5.214.094 5.033 0 5.056 0 5.185-.097a1.34 1.34 0 0 0 .226-.226l.097-.13V1.024l-.097-.13a1.34 1.34 0 0 0-.226-.226c-.129-.096-.161-.096-5.115-.107C3.824.553 2.895.563 2.75.615Zm11.562 11.437v10.752l.129-.068c.07-.037 1.787-.997 3.814-2.133l3.686-2.066.012-7.276c.011-6.897.007-7.277-.07-7.307-.192-.075-7.528-2.655-7.549-2.655-.012 0-.022 4.839-.022 10.753ZM3.847 1.834c-.227.126-.236.193-.238 1.662-.002 1.494.011 1.58.255 1.69.092.043 1.098.057 4.017.057h3.894l.153-.137.154-.137V2.043l-.154-.137-.153-.137-3.908.001c-3.153.002-3.93.014-4.02.064ZM10.18 4.61v.165h1.41v-.329h-1.41v.164ZM3.912 6.79a.647.647 0 0 0-.187.143c-.09.1-.095.18-.107 1.52-.012 1.34-.008 1.424.08 1.566.064.104.15.165.28.2.128.035 1.387.047 3.981.038 4.059-.014 3.898-.004 4.057-.243.102-.154.122-2.722.023-2.96-.134-.32.037-.308-4.217-.305-2.098.002-3.858.02-3.91.042Zm6.127 2.938v.164h1.409v-.329h-1.409v.165Zm-6.432 3.051v.352h8.498v-.704H3.607v.352Zm.032 1.557c-.018.018-.032.187-.032.376v.344h8.498v-.751H7.887c-2.32 0-4.231.014-4.248.031Zm-.032 2.2v.351h8.451v-.704H3.607v.352Zm3.987 2.183a1.483 1.483 0 0 0-1.07.841 1.503 1.503 0 0 0 .304 1.666c.232.226.447.335.771.395a1.469 1.469 0 0 0 1.736-1.448c0-.915-.833-1.61-1.74-1.454Zm-.08.782c-.548.27-.544 1.086.008 1.348a.77.77 0 0 0 .95-.232c.112-.147.135-.223.135-.443s-.023-.296-.135-.443a.776.776 0 0 0-.958-.23Z" clip-rule="evenodd"/></g><defs><clipPath id="a"><path d="M0 0h24v24H0z"/></clipPath></defs></svg>