<svg xmlns="http://www.w3.org/2000/svg" width="24" height="24" fill="currentColor"><g clip-path="url(#a)"><path fill-rule="evenodd" d="M7.68.052a.859.859 0 0 0-.423.45c-.033.086-.053.633-.053 1.414V3.19H8.81l-.015-1.349C8.782.57 8.776.485 8.678.354a1.396 1.396 0 0 0-.234-.236c-.166-.124-.565-.158-.765-.066Zm8.013 0a.859.859 0 0 0-.422.45c-.033.086-.054.633-.054 1.414V3.19h1.607l-.015-1.349C16.796.57 16.79.485 16.692.354a1.395 1.395 0 0 0-.234-.236c-.166-.124-.565-.158-.764-.066Zm-4.007.802a.86.86 0 0 0-.422.449c-.03.08-.054.517-.054 1.014v.873h1.61l-.017-.948c-.016-1.034-.029-1.08-.353-1.322-.165-.124-.564-.159-.764-.066ZM6.608 4.07a2.46 2.46 0 0 0-1.734 1.76c-.114.437-.112 11.12.002 11.558a2.444 2.444 0 0 0 1.761 1.755c.43.112 10.319.112 10.749 0a2.445 2.445 0 0 0 1.761-1.755c.067-.256.077-1.016.077-5.783 0-4.766-.01-5.527-.077-5.783a2.445 2.445 0 0 0-1.761-1.755c-.422-.11-10.367-.106-10.778.004ZM.465 7.267c-.47.205-.617.844-.286 1.237.242.288.298.295 2.14.295h1.68V7.197l-1.691.002C1.016 7.2.58 7.216.465 7.267Zm19.56 1.536 1.75-.014c1.676-.014 1.755-.019 1.887-.118.263-.196.345-.356.345-.673 0-.317-.082-.477-.345-.673-.132-.099-.21-.104-1.887-.118l-1.75-.014v1.61Zm-18.759 2.47c-.47.205-.617.844-.286 1.238.235.279.333.295 1.74.295h1.278v-1.603l-1.29.002c-.958.002-1.328.02-1.442.069Zm18.76 1.538 1.348-.015c1.271-.014 1.357-.02 1.487-.118.263-.197.345-.357.345-.673 0-.317-.082-.477-.345-.673-.13-.098-.216-.104-1.487-.118l-1.349-.015v1.612ZM.464 14.479c-.47.205-.617.844-.286 1.237.242.288.298.296 2.14.296h1.68v-1.603l-1.691.002c-1.292.001-1.727.017-1.843.068Zm19.56 2.338 1.75-.015c1.676-.014 1.755-.018 1.887-.117.263-.197.345-.357.345-.673 0-.317-.082-.477-.345-.674-.132-.098-.21-.103-1.887-.117l-1.75-.014v1.61Zm-12.81 4.95c.013 1.678.018 1.756.117 1.888.196.263.356.345.673.345.317 0 .477-.082.673-.345.099-.132.104-.21.118-1.887l.014-1.75H7.2l.014 1.75Zm4.005-.4c.014 1.272.021 1.357.119 1.487.196.263.356.345.673.345.316 0 .476-.082.673-.345.097-.13.104-.215.118-1.487l.015-1.349h-1.612l.014 1.349Zm4.008.4c.014 1.678.018 1.756.117 1.888.197.263.357.345.673.345.317 0 .477-.082.673-.345.1-.132.104-.21.118-1.887l.014-1.75h-1.61l.015 1.75Z" clip-rule="evenodd"/></g><defs><clipPath id="a"><path d="M0 0h24v24H0z"/></clipPath></defs></svg>