<svg xmlns="http://www.w3.org/2000/svg" width="437" height="437" fill="none">
	<path fill="currentColor" fill-rule="evenodd" d="M153.115.485c-4.04 1.296-7.436 4.275-9.327 8.184-2.235 4.621-2.281 8.638-.151 13.333 1.568 3.454 6.567 8.181 8.653 8.181.714 0 1.017 3.736 1.043 12.86l.038 12.86 16.515 12.06 16.517 12.058v67.055l-8.494-.25-8.495-.249-.265-18.745-.267-18.745-14.867-11.988-14.868-11.988H111.69l-1.09-2.633c-3.392-8.194-15.805-11.262-23.083-5.707-6.112 4.665-8.063 12.332-4.893 19.238 1.904 4.148 3.847 6.007 8.166 7.814 6.966 2.912 14.918.306 18.845-6.178l2.279-3.76 11.589-.028 11.589-.028 12.587 10.167 12.587 10.167v32.632l-2.758.552c-3.745.75-8.377 4.438-10.091 8.035l-1.412 2.965H75.307l-18.94-18.97-18.942-18.97.892-3.044c1.233-4.208.285-8.899-2.605-12.891-3.392-4.687-7.703-6.569-14.001-6.112-9.184.665-14.424 6.93-13.738 16.425.747 10.33 10.188 16.918 19.597 13.674l3.594-1.239 20.33 20.359 20.33 20.358h73.632v23.541h-24.83c-18.202 0-24.83-.269-24.83-1.008 0-1.69-4.303-6.768-6.797-8.023-5.997-3.017-12.726-2.348-17.588 1.746-3.701 3.116-5.332 6.641-5.37 11.609-.04 5.321 2.12 9.93 6.07 12.944 2.677 2.044 3.883 2.349 9.31 2.349 5.448 0 6.627-.3 9.352-2.381 1.716-1.309 3.643-3.565 4.284-5.013l1.164-2.633h49.235v26.156l-35.067.051-35.067.053-12.045 16.513-12.046 16.514H40.843c-6.325 0-10.389-.34-10.389-.87 0-1.563-6.055-7.62-8.726-8.727-4.211-1.745-11.506-.717-15.264 2.151C2.91 255.621 0 261.133 0 265.15c0 9.058 9.859 17.294 18.71 15.632 4.092-.768 9.451-4.786 10.831-8.119l1.125-2.718h25.04l9.373-12.775c5.155-7.027 10.851-14.678 12.66-17.001l3.287-4.226h64.43v17.437h-35.48l-12.317 15.231-12.318 15.231v26.908l-2.928 1.729c-7.4 4.37-10.218 12.819-6.83 20.483 5.217 11.803 22.316 12.055 27.949.411 2.265-4.683 2.319-8.685.181-13.397-1.568-3.454-6.567-8.182-8.652-8.182-.714 0-1.005-3.496-.998-11.988l.009-11.988 10.052-12.424 10.051-12.424h31.281v8.071c0 4.439.384 9.411.853 11.05.965 3.365 4.506 7.448 8.077 9.315l2.396 1.252v70.155l-18.592 18.591-18.592 18.591-3.624-.977c-6.935-1.868-14.326 1.55-17.49 8.091-3.05 6.304-2.189 12.622 2.377 17.451 3.449 3.649 6.494 4.936 11.662 4.932 10.266-.007 17.496-9.662 14.731-19.67l-.947-3.431 20.029-20.059 20.029-20.06v-72.787h23.523v47.556l-3.113 1.678c-7.251 3.907-9.544 14.083-4.846 21.497 3.001 4.735 7.363 7.044 13.221 6.998 4.964-.038 8.487-1.669 11.6-5.372 6.337-7.536 4.558-17.866-4.039-23.461l-3.24-2.107v-46.789h26.117l.227 34.131.229 34.132 16.75 12.295 16.751 12.296.02 10.244c.015 7.18-.281 10.244-.986 10.244-2.086 0-7.085 4.728-8.653 8.182-2.138 4.711-2.084 8.714.182 13.397 5.542 11.459 22.125 11.459 27.668 0 3.547-7.332 1.403-15.111-5.507-19.985l-3.971-2.801-.026-12.257-.026-12.256-16.527-12.05-16.528-12.052v-63.52h17.425l.036 17.22.037 17.219 14.879 11.988 14.879 11.988h27.458l1.09 2.633c2.289 5.53 9.391 9.244 16.208 8.475 10.096-1.139 16.421-13.113 11.756-22.259-2.038-3.996-4.016-5.83-8.154-7.561-6.967-2.912-14.918-.306-18.846 6.177l-2.278 3.762-11.589.027-11.589.027-12.588-10.166-12.587-10.167v-29.139l9.397-.387c7.642-.315 10.046-.752 12.866-2.338 5.296-2.978 7.513-6.865 8.028-14.071l.436-6.096h69.819l19.065 19.023 19.065 19.023-.98 3.646c-1.423 5.286.113 10.133 4.647 14.671 7.137 7.142 17.86 5.741 23.822-3.111 2.333-3.465 2.715-10.954.752-14.716-3.766-7.213-12.215-10.696-19.356-7.978-2.332.887-3.005.313-22.498-19.181l-20.095-20.096h-74.475v-24.412h48.744l1.284 2.487c.707 1.367 2.669 3.702 4.36 5.187 9.651 8.481 25.094 1.119 25.094-11.961 0-4.967-1.685-8.489-5.783-12.09-7.062-6.205-19.15-3.575-23.658 5.147l-1.297 2.512h-48.744v-26.156h69.562l12.466-17.001 12.466-17.002h20.295l1.09 2.633c2.306 5.57 9.555 9.343 15.983 8.32 14.984-2.383 18.317-22.422 4.872-29.286-3.916-1.999-9.272-2.217-13.28-.542-2.791 1.167-8.453 6.823-8.453 8.444 0 .501-5.041.841-12.481.841h-12.48l-12.479 17.001-12.479 17.001h-65.082v-17.437l18.078-.052 18.078-.053 11.979-14.975 11.979-14.974v-27.407l3.127-1.484c6.148-2.92 9.676-11.966 7.381-18.925-.562-1.704-2.545-4.474-4.406-6.158-7.919-7.16-20.249-4.464-24.6 5.38-3.225 7.295-.492 15.437 6.504 19.371l3.282 1.846v23.433l-10.214 12.64-10.214 12.64h-30.974l-.019-3.706c-.034-6.663-4.275-13.307-9.839-15.417-1.349-.512-5.76-.93-9.801-.93h-7.349V74.198l18.592-18.591 18.592-18.59 3.624.976c6.877 1.852 14.385-1.673 17.566-8.25 3.834-7.926.799-16.844-7.146-20.998-3.445-1.801-11.025-1.566-14.318.443-6.311 3.851-9.413 11.502-7.282 17.962l1.071 3.249-20.142 20.17-20.14 20.17v76.274h-23.523V95.97l3.112-1.679c4.237-2.282 7.342-7.78 7.342-12.997 0-10.104-8.432-17.06-18.57-15.32-8.507 1.462-14.46 11.006-11.996 19.235 1.239 4.139 5.598 9.314 8.447 10.03l2.081.523v51.251h-26.117l-.228-35.882-.227-35.88-16.745-12.29-16.745-12.289-.026-10.244c-.018-7.183.274-10.244.981-10.244 2.086 0 7.085-4.728 8.652-8.182.896-1.974 1.637-4.936 1.648-6.583.027-4.358-3.174-10.302-6.867-12.747-3.533-2.34-9.701-3.352-13.334-2.187Zm.182 10.518c-2.309 2.31-2.303 7.069.011 9.165 4.019 3.639 10.443.868 10.443-4.505 0-3.667-2.606-6.404-6.098-6.404-1.453 0-3.388.775-4.356 1.743Zm152.098 7.075c-3.139 2.47-2.892 7.207.507 9.735 6.354 4.727 13.373-4.871 7.146-9.772-2.906-2.289-4.71-2.28-7.653.037Zm-82.875 58.71c-1.177 1.178-2.139 3.157-2.139 4.4 0 2.456 3.485 6.538 5.582 6.538 2.419 0 5.545-1.921 6.485-3.986 1.831-4.023-1.783-9.092-6.485-9.092-.718 0-2.267.964-3.443 2.14ZM92.01 84.963c-3.486 3.855-.521 10.611 4.657 10.611 1.453 0 3.388-.775 4.356-1.744 3.898-3.9.978-10.462-4.656-10.462-1.718 0-3.507.655-4.356 1.595ZM346.063 97.12c-4.384.71-6.081 7.45-2.674 10.625 4.097 3.821 10.29 1.037 10.29-4.626 0-4.126-3.271-6.704-7.616-6Zm-326.18 11.085c-5.604 3.096-2.962 11.78 3.584 11.78 2.494 0 6.116-3.792 6.116-6.403 0-4.713-5.442-7.731-9.7-5.377Zm136.598 49.993c-1.312 1.451-1.442 7.004-1.442 61.838v60.245l2.296 1.807c2.271 1.788 2.925 1.807 61.303 1.807s59.032-.019 61.304-1.807l2.295-1.807v-60.396c0-57.404-.079-60.467-1.593-61.839-1.45-1.314-7.024-1.443-62.157-1.443-57.567 0-60.636.079-62.006 1.595Zm260.35 1.904c-2.248 2.486-2.052 6.859.397 8.843 6.022 4.879 14.212-3.399 8.761-8.854-2.309-2.311-7.064-2.305-9.158.011Zm-244.367 59.711v46.645h92.349v-93.289h-92.349v46.644Zm8.712 0v37.054h74.925v-74.108h-74.925v37.054ZM76.928 191.971c-1.81 1.812-2.131 2.764-1.683 5.002.76 3.807 2.542 5.316 6.276 5.316 5.889 0 8.464-6.244 4.295-10.415-2.76-2.763-6.066-2.727-8.888.097Zm274.2 37.55c-.994 1.264-1.807 2.976-1.807 3.806 0 2.924 3.403 6.103 6.535 6.103 3.131 0 6.534-3.179 6.534-6.103s-3.403-6.103-6.534-6.103c-2.12 0-3.419.631-4.728 2.297ZM13.045 259.732c-1.19.603-2.535 2.15-2.988 3.44-2.54 7.225 8.232 11.917 11.19 4.875 1.422-3.384.898-5.506-1.908-7.713-2.549-2.007-3.365-2.085-6.294-.602Zm396.89 51.688c-3.975 3.977-1.614 10.178 4.062 10.666 2.481.213 3.438-.192 4.922-2.079 2.315-2.946 2.324-4.75.037-7.659-2.1-2.672-6.796-3.155-9.021-.928Zm-321.98 8.848c-4.477 1.618-5.895 7.424-2.614 10.707 5.336 5.34 13.87-2.829 8.93-8.546-1.703-1.971-4.342-2.874-6.316-2.161Zm232.616 22.913c-3.898 3.901-.977 10.463 4.657 10.463 3.607 0 5.798-2.25 5.798-5.954 0-3.51-2.675-6.252-6.099-6.252-1.452 0-3.388.775-4.356 1.743ZM192.209 349.9c-2.32.599-4.059 5.241-3.049 8.14.795 2.281 3.85 4.322 6.472 4.322.718 0 2.267-.963 3.443-2.14 5.008-5.011.252-12.161-6.866-10.322ZM109.3 408.741c-2.438 1.383-3.021 2.469-3.036 5.651-.014 2.978 3.233 6.385 6.085 6.385 2.922 0 6.099-3.405 6.099-6.539 0-2.121-.631-3.421-2.296-4.731-2.573-2.026-4.293-2.218-6.852-.766Zm152.899 6.56c-4.477 1.618-5.894 7.424-2.613 10.707 3.898 3.901 10.454.978 10.454-4.66 0-4.091-4.229-7.352-7.841-6.047Z" clip-rule="evenodd"/>
</svg>
