<svg xmlns="http://www.w3.org/2000/svg" width="44" height="480" fill="none">
	<path fill="currentColor" d="M0 250h4v5H0v-5Zm20 0h4v5h-4v-5Zm20 0h4v5h-4v-5ZM0 275h4v5H0v-5Zm20 0h4v5h-4v-5Zm20 0h4v5h-4v-5ZM0 300h4v5H0v-5Zm20 0h4v5h-4v-5Zm20 0h4v5h-4v-5ZM0 325h4v5H0v-5Zm20 0h4v5h-4v-5Zm20 0h4v5h-4v-5ZM0 350h4v5H0v-5Zm20 0h4v5h-4v-5Zm20 0h4v5h-4v-5ZM0 375h4v5H0v-5Zm20 0h4v5h-4v-5Zm20 0h4v5h-4v-5ZM0 400h4v5H0v-5Zm20 0h4v5h-4v-5Zm20 0h4v5h-4v-5ZM0 425h4v5H0v-5Zm20 0h4v5h-4v-5Zm20 0h4v5h-4v-5ZM0 450h4v5H0v-5Zm20 0h4v5h-4v-5Zm20 0h4v5h-4v-5ZM0 475h4v5H0v-5Zm20 0h4v5h-4v-5Zm20 0h4v5h-4v-5ZM0 0h4v5H0V0Zm20 0h4v5h-4V0Zm20 0h4v5h-4V0ZM0 25h4v5H0v-5Zm40 0h4v5h-4v-5ZM0 50h4v5H0v-5Zm20 0h4v5h-4v-5Zm20 0h4v5h-4v-5ZM0 75h4v5H0v-5Zm20 0h4v5h-4v-5Zm20 0h4v5h-4v-5ZM0 100h4v5H0v-5Zm20 0h4v5h-4v-5Zm20 0h4v5h-4v-5ZM0 125h4v5H0v-5Zm20 0h4v5h-4v-5Zm20 0h4v5h-4v-5ZM0 150h4v5H0v-5Zm20 0h4v5h-4v-5Zm20 0h4v5h-4v-5ZM0 175h4v5H0v-5Zm20 0h4v5h-4v-5Zm20 0h4v5h-4v-5ZM0 200h4v5H0v-5Zm20 0h4v5h-4v-5Zm20 0h4v5h-4v-5ZM0 225h4v5H0v-5Zm20 0h4v5h-4v-5Zm20 0h4v5h-4v-5ZM20 25h4v5h-4v-5Z"/>
</svg>
