<svg xmlns="http://www.w3.org/2000/svg" width="24" height="24" fill="none">
	<g clip-path="url(#a)">
		<path fill="currentColor" fill-rule="evenodd" d="M1.503-.043A2.28 2.28 0 0 0 .176 1.135c-.141.301-.141.303-.141 1.668 0 1.344.001 1.369.124 1.54.2.281.394.35 1.067.385.583.03.606.035.767.196.322.322.255.868-.129 1.059-.108.053-.365.09-.711.104-.634.024-.866.129-1.04.47-.09.175-.105.316-.105.931v.726h1.171c1.104 0 1.18.006 1.313.111.15.118.188.345.089.53-.096.178-.356.216-1.483.216H.008v1.227l1.21.016c1.198.016 1.211.018 1.313.143a.419.419 0 0 1-.03.572l-.131.132H.008v1.232h1.09c1.127 0 1.387.038 1.483.216a.43.43 0 0 1-.08.51l-.131.131H.008v1.286h1.196c1.18 0 1.197.002 1.313.124a.396.396 0 0 1-.008.563c-.12.113-.166.117-1.316.117H0l.017.8c.02.915.056 1.009.474 1.222.195.1.323.12.739.12.377 0 .54.024.657.092.226.134.334.4.305.75-.02.238-.055.322-.194.46-.167.168-.178.171-.803.199-.59.026-.648.038-.83.177-.358.273-.366.316-.347 1.796.017 1.302.02 1.326.16 1.626a2.29 2.29 0 0 0 1.38 1.191c.261.077 1.308.085 10.237.085 8.928 0 9.975-.008 10.237-.085.584-.17 1.087-.607 1.375-1.194.147-.3.148-.304.165-1.622.02-1.479.011-1.523-.348-1.797-.18-.138-.244-.152-.79-.177-.327-.015-.646-.057-.71-.094-.24-.137-.34-.33-.34-.664 0-.284.02-.335.183-.514l.182-.198.608-.03c.665-.031.871-.106 1.085-.392.1-.135.115-.238.13-.951l.017-.8h-1.2c-1.185 0-1.201-.002-1.316-.124a.396.396 0 0 1 .007-.563c.12-.113.166-.117 1.313-.117h1.189V13.25H22.41c-1.104 0-1.18-.006-1.313-.11-.15-.119-.187-.346-.088-.53.095-.18.355-.217 1.482-.217h1.09V11.16H21.22l-.131-.132a.419.419 0 0 1-.03-.572c.102-.126.115-.127 1.313-.143l1.21-.016V9.07h-1.09c-1.127 0-1.387-.038-1.482-.216-.1-.185-.061-.412.088-.53.133-.105.21-.111 1.313-.111h1.172v-.729c0-.843-.056-1.021-.386-1.24-.18-.12-.277-.14-.755-.158-.35-.013-.608-.05-.716-.104-.384-.19-.45-.737-.129-1.06.16-.16.184-.166.768-.195.673-.034.866-.104 1.066-.384.123-.172.125-.197.125-1.541V1.436l-.158-.32a2.199 2.199 0 0 0-1.365-1.174c-.264-.078-1.25-.086-10.26-.083-9.425.003-9.986.008-10.269.098Zm3.929 1.827a1.003 1.003 0 0 0-.281.281c-.1.165-.107.273-.107 1.841 0 1.64.002 1.67.12 1.843.215.315.405.375 1.184.375.798 0 1.009-.075 1.208-.428.108-.194.113-.272.113-1.803 0-1.785-.01-1.846-.375-2.095-.162-.11-.236-.12-.932-.12-.66 0-.778.013-.93.106Zm5.496.723c-.322.218-.376.444-.356 1.488.019.986.041 1.056.419 1.312l.177.12h6.986l.178-.12c.38-.258.399-.322.418-1.352.015-.848.007-.948-.092-1.142a.961.961 0 0 0-.291-.326c-.18-.112-.22-.113-3.713-.113h-3.531l-.195.133Zm-5.08 1.36v1.386l.2.033a3.7 3.7 0 0 0 .483.034h.281V2.482h-.964v1.386Zm5.572.034v.723h6.482V3.178H11.42V3.9Zm1.12 3.827c-.15.15-.156.174-.156.663v.507l-.186.035c-.317.06-.671.44-.671.72 0 .096-.046.106-.54.123-.516.018-.547.025-.67.169-.165.192-.165.382.002.548.122.123.17.132.67.132h.538v.794l-.568.018c-.52.017-.575.029-.67.145a.515.515 0 0 0-.102.275c0 .082.046.206.103.276.094.116.149.128.67.144l.567.019v.793h-.538c-.5 0-.548.01-.67.132-.145.145-.17.375-.059.523.113.148.334.203.815.203.42 0 .452.007.452.11 0 .285.351.664.671.724l.186.035v.473c0 .261.027.534.06.607.122.267.55.307.718.068.057-.08.08-.261.08-.636v-.524h.803v.538c0 .5.01.548.131.67.177.177.376.168.57-.025.15-.152.156-.174.156-.67v-.513h.804v.538c0 .5.01.548.131.67.161.16.344.168.531.02.136-.107.141-.13.141-.663v-.551l.213-.034a.85.85 0 0 0 .65-.597l.058-.228.537-.022c.514-.02.544-.028.67-.175.103-.12.125-.192.1-.32-.056-.292-.19-.353-.787-.353h-.53v-.803h.48c.264 0 .54-.027.612-.06.298-.136.298-.601 0-.737-.073-.033-.348-.06-.612-.06h-.48v-.804h.505c.277 0 .543-.015.591-.033.128-.05.251-.32.213-.472-.065-.259-.203-.32-.772-.343l-.527-.021-.058-.23a.85.85 0 0 0-.65-.595l-.213-.034v-.552c0-.538-.003-.555-.146-.667a.401.401 0 0 0-.563.06c-.076.09-.094.217-.094.643v.53h-.804v-.452c0-.521-.048-.686-.238-.81-.16-.105-.357-.073-.513.084-.091.091-.106.18-.106.642v.535h-.804v-.468c-.001-.59-.03-.696-.218-.793-.218-.112-.306-.098-.482.079Zm-6.933.882c-.599.261-.92.983-.698 1.565.283.74 1.089 1.065 1.77.715 1.185-.61.748-2.361-.587-2.353-.179.002-.397.034-.485.073Zm.211.598c-.44.217-.457.899-.026 1.121.34.176.707.053.887-.296.107-.206.1-.365-.026-.57-.188-.31-.52-.41-.835-.255Zm6.512 2.65v2.089h4.233v-4.18H12.33v2.09Zm-6.536.853c-.96.292-1.26 1.424-.564 2.121.45.45 1.072.502 1.607.134.48-.33.658-1.073.385-1.609-.262-.512-.908-.804-1.428-.646Zm-.013.677c-.184.1-.308.335-.308.584 0 .272.272.561.562.597a.648.648 0 0 0 .702-.746c-.05-.268-.347-.52-.61-.517a.882.882 0 0 0-.346.082Zm-.31 4.301c-.102.055-.24.179-.306.276-.12.174-.121.203-.12 1.843 0 1.568.006 1.677.106 1.84.205.337.364.388 1.211.389.696 0 .77-.01.932-.12.364-.25.375-.31.375-2.096 0-1.53-.005-1.61-.113-1.802-.2-.354-.41-.43-1.208-.43-.568 0-.722.018-.876.1Zm5.52.718c-.378.257-.4.327-.419 1.312-.02 1.044.034 1.27.356 1.489l.195.132h3.53c3.494 0 3.533 0 3.714-.112a.962.962 0 0 0 .29-.326c.1-.195.108-.295.093-1.143-.019-1.03-.039-1.093-.418-1.352l-.178-.12h-6.986l-.177.12Zm-5.108.022c-.02.02-.035.659-.035 1.42v1.384h.964V18.46l-.167-.033c-.222-.044-.717-.043-.762.002Zm5.537 1.384v.724h6.482V19.09H11.42v.723Z" clip-rule="evenodd"/>
	</g>
	<defs>
		<clipPath id="a">
			<path fill="currentColor" d="M0 0h24v24H0z"/>
		</clipPath>
	</defs>
</svg>
