<svg xmlns="http://www.w3.org/2000/svg" width="23" height="24" fill="none">
	<path fill="currentColor" fill-rule="evenodd" d="M10.787.068C8.443.51 6.61 2.24 6.047 4.54c-.155.633-.19 1.624-.082 2.284.418 2.54 2.348 4.48 4.898 4.925.366.064.677.08 1.184.059 1.12-.046 2.052-.338 2.964-.928a5.901 5.901 0 0 0 2.717-4.975A5.901 5.901 0 0 0 15.01.93a5.685 5.685 0 0 0-1.77-.769c-.649-.169-1.817-.213-2.453-.093Zm.379 1.664a4.654 4.654 0 0 0-1.85.772c-.717.526-1.35 1.457-1.585 2.33-.155.577-.155 1.567 0 2.143.235.874.868 1.804 1.584 2.33a4.233 4.233 0 0 0 5.473-.422 4.213 4.213 0 0 0-.021-5.981c-.932-.921-2.351-1.383-3.601-1.172Zm7.165 9.362c-.918.076-1.796.5-2.505 1.208a3.979 3.979 0 0 0-1.031 1.654c-.238.715-.258 1.72-.048 2.453.091.32.382.94.553 1.181.098.137.102.26.103 2.857 0 1.806.02 2.783.058 2.922.125.449.626.736 1.038.595.113-.04.673-.385 1.245-.769l1.038-.697 1.103.747c1.039.703 1.118.747 1.362.75.312.003.551-.111.718-.345l.123-.173.029-5.683.189-.295c1.246-1.949.644-4.58-1.33-5.81-.758-.472-1.667-.676-2.645-.595Zm-.229 1.766a2.404 2.404 0 0 0-1.094.666c-.485.501-.708 1.049-.706 1.732.003 1.836 1.953 3.026 3.595 2.194.322-.164.798-.593.988-.892.33-.52.447-1.22.309-1.842-.307-1.38-1.717-2.228-3.092-1.858Zm-11.366.69c-.396.043-1.25.245-1.685.399-2.136.753-3.895 2.515-4.65 4.657-.343.97-.397 1.38-.4 3.03-.003 1.425.001 1.496.106 1.636.06.08.174.195.254.255.146.108.174.109 5.608.109 5.434 0 5.463 0 5.608-.109.277-.207.364-.376.364-.71 0-.334-.087-.503-.364-.71-.144-.108-.19-.11-5.03-.123l-4.885-.014v-.541c0-1.434.316-2.534 1.037-3.618a5.905 5.905 0 0 1 2.907-2.25c.831-.299.98-.314 3.49-.348 2.25-.031 2.34-.036 2.481-.141.278-.208.364-.377.364-.71 0-.335-.087-.504-.364-.71-.142-.107-.21-.11-2.401-.115-1.24-.003-2.339.003-2.44.014Zm10.41 7.995.618-.422c.672-.458.92-.558 1.198-.482.097.027.465.243.819.48l.642.43v-2.422l-.41.137c-.37.124-.487.137-1.228.137-.742 0-.858-.013-1.229-.137l-.41-.137v2.416Z" clip-rule="evenodd"/>
</svg>
