<?xml version="1.0" encoding="UTF-8"?>
<!DOCTYPE svg PUBLIC "-//W3C//DTD SVG 1.1//EN" "http://www.w3.org/Graphics/SVG/1.1/DTD/svg11.dtd">
<!-- Creator: CorelDRAW -->
<svg xmlns="http://www.w3.org/2000/svg" xml:space="preserve" width="55.2783mm" height="49.359mm" version="1.1" style="shape-rendering:geometricPrecision; text-rendering:geometricPrecision; image-rendering:optimizeQuality; fill-rule:evenodd; clip-rule:evenodd" viewBox="0 0 6307.1 5631.73"
  xmlns:xlink="http://www.w3.org/1999/xlink"
  xmlns:xodm="http://www.corel.com/coreldraw/odm/2003">
  <defs>
    <style type="text/css">
      <![CDATA[
    .fil0 {fill:#FCD34D}
   ]]>
    </style>
  </defs>
  <g id="Camada_x0020_1">
    <metadata id="CorelCorpID_0Corel-Layer"/>
    <path id="Logo" class="fil0" d="M5620.82 59.43l0 1261.33c0,16.36 -5.82,30.44 -17.41,42.01l-1740.7 1740.72 2426.8 2426.77c17.37,17.35 22.28,42.07 12.89,64.75 -9.41,22.68 -30.37,36.69 -54.92,36.69l-1377.5 0c-16.36,0 -30.45,-5.83 -42.02,-17.41l-2446.7 -2446.71c-23.16,-23.14 -23.16,-60.89 -0.02,-84.03l1855.73 -1856.08c50.82,-50.81 10.5,-134.57 -60.04,-134.5l-3049.97 2.99c-16.32,0.02 -30.36,-5.76 -41.93,-17.27l-983.58 -977.12c-17.45,-17.31 -22.44,-42.07 -13.08,-64.8 9.37,-22.74 30.37,-36.78 54.95,-36.78l5418.06 0c32.72,0 59.42,26.7 59.42,59.43zm-5597.1 5513.19l-23.72 -4270.07c-0.14,-24.62 13.83,-45.7 36.53,-55.17 22.72,-9.48 47.52,-4.6 64.91,12.81l983.4 983.48c11.56,11.55 17.39,25.6 17.41,41.95l1.96 1901.53c0.07,72.12 73.87,99.53 123.94,49.46l882.84 -882.82c23.14,-23.16 60.89,-23.16 84.03,0l671.37 671.44c23.16,23.13 23.16,60.89 0,84.04l-311.34 311.28 -1206.11 1193.94c-11.57,11.44 -25.56,17.19 -41.82,17.19l-1224 0c-32.61,0 -59.25,-26.49 -59.42,-59.09z"/>
  </g>
</svg>
