<svg width="62" height="78" viewBox="0 0 62 78" fill="currentColor"
	xmlns="http://www.w3.org/2000/svg">
	<path fill-rule="evenodd" clip-rule="evenodd" d="M29.0559 0.217952C28.1674 0.554235 26.8394 1.59715 25.5009 3.00975C24.8982 3.64603 24.3306 4.21246 24.2398 4.26868C24.1488 4.32489 23.0838 4.1065 21.873 3.78333C20.5875 3.44041 19.2666 3.1956 18.6985 3.19526C16.7605 3.1939 14.8402 4.3375 13.9382 6.03016C13.6958 6.48501 13.2466 7.81549 12.9401 8.98669C12.6336 10.1579 12.3636 11.14 12.3398 11.1693C12.3161 11.1984 11.3113 11.4933 10.1069 11.8243C8.90248 12.1555 7.54457 12.6274 7.08921 12.8732C5.57611 13.6899 4.50355 15.3362 4.31616 17.1302C4.23405 17.9157 4.32348 18.5297 4.76828 20.2346C5.07339 21.4034 5.35584 22.513 5.39604 22.7003C5.45022 22.9523 5.02041 23.4956 3.74495 24.7872C1.52999 27.0306 1.10018 27.8705 1.10852 29.9405C1.1167 31.9272 1.47735 32.6161 3.71463 34.9176L5.4894 36.7431L4.85244 39.1765C4.14205 41.8903 4.11735 42.91 4.72791 44.2906C5.15329 45.2521 6.14271 46.3596 7.05088 46.8907C7.4335 47.1144 8.73826 47.5691 9.95017 47.9008C11.1621 48.2326 12.2093 48.5628 12.2771 48.6345C12.345 48.7062 12.6461 49.6847 12.946 50.8091C13.2459 51.9334 13.6678 53.1983 13.8837 53.62C14.6455 55.1089 16.1496 56.1944 17.8991 56.5177C18.9516 56.7123 19.5375 56.6261 22.3388 55.8644L24.1545 55.3709L25.8311 57.0584C28.0009 59.242 29.1057 59.8352 30.992 59.8296C32.9099 59.824 33.8538 59.3252 36.0979 57.1315L37.8996 55.3705L39.9439 55.9513C42.6352 56.7158 43.9895 56.7552 45.4031 56.1095C46.6118 55.5576 47.5796 54.6697 48.1167 53.62C48.3326 53.1983 48.7545 51.9334 49.0544 50.8091C49.3544 49.6847 49.6554 48.7062 49.7234 48.6345C49.7912 48.5628 50.8383 48.2326 52.0502 47.9008C54.5221 47.2241 55.354 46.8061 56.2889 45.7713C57.1105 44.8618 57.5505 43.8615 57.6814 42.6052C57.7669 41.7835 57.6739 41.1853 57.148 39.1765L56.511 36.7431L58.2858 34.9176C60.5231 32.6161 60.8837 31.9272 60.8919 29.9405C60.9001 27.8953 60.4871 27.0846 58.2582 24.7705L56.5158 22.9613L57.0884 20.8717C57.8183 18.2077 57.8505 16.821 57.2141 15.4524C56.279 13.4418 55.2374 12.7308 51.8795 11.8103C50.6763 11.4805 49.6753 11.1896 49.6547 11.1635C49.6343 11.1374 49.3668 10.1579 49.0603 8.98669C48.7539 7.81549 48.3046 6.48501 48.0622 6.03016C47.1602 4.3375 45.2399 3.1939 43.302 3.19526C42.7333 3.1956 41.4117 3.44075 40.1217 3.78487C38.908 4.10871 37.8978 4.3576 37.877 4.33784C37.8562 4.31808 37.0359 3.52644 36.0542 2.57874C33.8254 0.427319 33.1257 0.0586689 31.1706 0.00517707C30.2169 -0.0208874 29.4949 0.0516844 29.0559 0.217952ZM38.9105 20.6414C38.5632 20.7925 36.7383 22.8494 33.4685 26.7749L28.549 32.681L25.9841 30.1265C24.5735 28.7216 23.2035 27.4918 22.9398 27.3935C20.7138 26.564 18.5954 28.6822 19.4242 30.9089C19.6329 31.4699 26.765 38.6988 27.4873 39.0816C28.1822 39.4499 29.319 39.4274 30.0018 39.0319C30.6595 38.6509 42.1362 25.04 42.5112 24.1964C43.5227 21.9199 41.2124 19.6389 38.9105 20.6414ZM5.87304 50.5854C5.82773 50.7084 4.67118 54.9871 3.30305 60.0935C0.634594 70.0523 0.548224 70.5436 1.2845 71.5593C1.69012 72.1187 2.82435 72.6998 3.51071 72.6998C3.79214 72.6998 6.31699 71.8574 9.12122 70.8278C11.9256 69.7983 14.3033 68.9551 14.4048 68.9539C14.5065 68.9528 16.1746 70.8525 18.1121 73.1753C20.0494 75.4981 21.8563 77.5296 22.1274 77.6897C23.2366 78.3449 24.9222 77.9241 25.7383 76.7884C25.9689 76.4672 28.4665 67.584 29.3837 63.8221C29.4851 63.4064 29.4379 63.3633 28.6704 63.1701C27.3214 62.8306 25.6037 61.816 24.272 60.5725L23.0197 59.4029L21.6012 59.7792C17.8486 60.7746 14.359 59.7991 11.9321 57.0761C10.9462 55.9702 10.2861 54.6705 9.79021 52.8595L9.41883 51.5029L7.9013 51.066C7.06672 50.8256 6.28735 50.5689 6.16963 50.4953C6.04357 50.4166 5.92159 50.4537 5.87304 50.5854ZM55.8207 50.4914C55.7582 50.5539 55.0068 50.8064 54.1511 51.0522L52.5952 51.499L52.1848 52.9201C51.6356 54.823 51.0475 55.9773 50.0683 57.0761C47.6414 59.7991 44.1519 60.7746 40.3993 59.7792L38.9807 59.4029L37.7284 60.5725C36.3967 61.816 34.679 62.8306 33.33 63.1701C32.5624 63.3635 32.5154 63.4064 32.6169 63.8221C33.554 67.6612 36.0286 76.4672 36.2605 76.7884C37.0857 77.9309 38.7637 78.3451 39.8848 77.6827C40.1623 77.5189 41.9681 75.4874 43.8975 73.1683C45.827 70.8494 47.4898 68.9528 47.5929 68.9539C47.6959 68.9551 50.0748 69.7983 52.8792 70.8278C55.6834 71.8574 58.2083 72.6998 58.4897 72.6998C59.1761 72.6998 60.3103 72.1187 60.7159 71.5593C61.4524 70.5435 61.3667 70.0574 58.6783 60.0083C57.2996 54.855 56.1183 50.58 56.0531 50.5081C55.988 50.4363 55.8834 50.4287 55.8207 50.4914Z"/>
</svg>
