<svg width="79" height="78" viewBox="0 0 79 78" fill="currentColor"
	xmlns="http://www.w3.org/2000/svg">
	<path fill-rule="evenodd" clip-rule="evenodd" d="M25.284 0.17052C24.6813 0.449677 24.1409 1.02394 23.9117 1.62881C23.8053 1.90976 23.7381 3.6897 23.7381 6.22718V10.3673H28.9604L28.9122 5.984C28.8668 1.85133 28.8448 1.57493 28.5285 1.15156C28.3439 0.904468 28.0016 0.559387 27.7677 0.38473C27.2285 -0.0179729 25.9325 -0.129799 25.284 0.17052ZM51.3204 0.17052C50.7177 0.449677 50.1773 1.02394 49.9482 1.62881C49.8417 1.90976 49.7745 3.6897 49.7745 6.22718V10.3673H54.9968L54.9486 5.984C54.9032 1.85133 54.8813 1.57493 54.5649 1.15156C54.3804 0.904468 54.038 0.559387 53.8042 0.38473C53.2649 -0.0179729 51.9689 -0.129799 51.3204 0.17052ZM38.3022 2.77491C37.6995 3.05406 37.1591 3.62833 36.93 4.2332C36.8312 4.49396 36.7563 5.91417 36.7563 7.52938V10.3673H41.9833L41.9328 7.28603C41.8777 3.92653 41.837 3.77418 40.7859 2.98912C40.2467 2.58641 38.9507 2.47459 38.3022 2.77491ZM21.8036 13.2291C19.053 13.9689 16.8956 16.1577 16.17 18.9444C15.8001 20.3644 15.8061 55.0851 16.1763 56.507C16.9074 59.3145 19.0763 61.477 21.8981 62.2122C23.2956 62.5763 55.4243 62.5763 56.8218 62.2122C59.6436 61.477 61.8125 59.3145 62.5436 56.507C62.76 55.676 62.7928 53.2046 62.7928 37.7134C62.7928 22.2222 62.76 19.7508 62.5436 18.9198C61.8125 16.1123 59.6436 13.9498 56.8218 13.2146C55.4493 12.857 23.137 12.8703 21.8036 13.2291ZM1.84309 23.6183C0.318334 24.2826 -0.161387 26.3597 0.914406 27.6388C1.70022 28.5728 1.88264 28.598 7.86695 28.598H13.3235V23.3893L7.83147 23.3956C3.63424 23.4005 2.22241 23.4529 1.84309 23.6183ZM65.3964 28.6101L71.0802 28.5634C76.5286 28.5186 76.7826 28.5028 77.213 28.181C78.0669 27.5431 78.3333 27.0229 78.3333 25.9937C78.3333 24.9644 78.0669 24.4442 77.213 23.8063C76.7826 23.4845 76.5286 23.4687 71.0802 23.4239L65.3964 23.3772V28.6101ZM4.44674 36.6402C2.92198 37.3045 2.44226 39.3817 3.51805 40.6608C4.27961 41.5659 4.59791 41.62 9.16877 41.62H13.3235V36.4112L9.13329 36.4176C6.01869 36.4223 4.81564 36.4794 4.44674 36.6402ZM65.3964 41.635L69.7785 41.5868C73.91 41.5414 74.1863 41.5194 74.6096 41.2029C75.4634 40.5649 75.7296 40.0448 75.7296 39.0156C75.7296 37.9864 75.4634 37.4663 74.6096 36.8282C74.1863 36.5118 73.91 36.4898 69.7785 36.4444L65.3964 36.3962V41.635ZM1.84309 47.0578C0.318334 47.7221 -0.161387 49.7992 0.914406 51.0783C1.70022 52.0123 1.88264 52.0375 7.86695 52.0375H13.3235V46.8288L7.83147 46.8351C3.63424 46.84 2.22241 46.8924 1.84309 47.0578ZM65.3964 54.654L71.0802 54.6072C76.5286 54.5625 76.7826 54.5467 77.213 54.2249C78.0669 53.587 78.3333 53.0667 78.3333 52.0375C78.3333 51.0083 78.0669 50.4881 77.213 49.8502C76.7826 49.5284 76.5286 49.5126 71.0802 49.4678L65.3964 49.4211V54.654ZM23.7728 70.7448C23.8175 76.1948 23.8333 76.4489 24.155 76.8795C24.7927 77.7335 25.3128 78 26.3417 78C27.3707 78 27.8908 77.7335 28.5285 76.8795C28.8502 76.4489 28.866 76.1948 28.9107 70.7448L28.9574 65.0595H23.7261L23.7728 70.7448ZM36.7895 69.4428C36.8349 73.5755 36.8569 73.8519 37.1732 74.2752C37.8111 75.1293 38.331 75.3956 39.36 75.3956C40.3889 75.3956 40.9088 75.1293 41.5467 74.2752C41.863 73.8519 41.885 73.5755 41.9304 69.4428L41.9786 65.0595H36.7413L36.7895 69.4428ZM49.8092 70.7448C49.854 76.1948 49.8697 76.4489 50.1914 76.8795C50.8292 77.7335 51.3493 78 52.3782 78C53.4071 78 53.9272 77.7335 54.5649 76.8795C54.8866 76.4489 54.9024 76.1948 54.9472 70.7448L54.9939 65.0595H49.7625L49.8092 70.7448Z"/>
</svg>
