<svg width="86" height="78" viewBox="0 0 86 78" fill="currentColor"
	xmlns="http://www.w3.org/2000/svg">
	<path fill-rule="evenodd" clip-rule="evenodd" d="M14.5583 0.101343C12.5618 0.58251 10.7685 2.41141 10.2948 4.44938L10.1897 4.90078L36.2849 4.94593C61.1395 4.98894 62.4233 5.00564 63.2898 5.2961C66.9367 6.51911 69.5117 9.09763 70.6655 12.6818C70.9103 13.4427 70.969 14.3782 71.0239 18.3958L71.0896 23.2002L72.6894 23.9169C73.5693 24.3112 74.6822 24.8102 75.1624 25.0259L76.0354 25.4181L75.9894 14.7908C75.9439 4.26925 75.9398 4.15562 75.583 3.38317C75.0775 2.28917 73.8365 1.02464 72.7388 0.485417L71.8082 0.0282336L43.441 0.00259548C27.8391 -0.0114641 14.8418 0.0330303 14.5583 0.101343ZM4.63389 10.0257C3.06484 10.4038 1.41623 11.7842 0.713919 13.3076C0.397662 13.9933 0.347378 14.4328 0.298418 16.941L0.242676 19.7943H33.1858H66.129L66.0733 16.941C66.0243 14.4328 65.974 13.9933 65.6578 13.3076C65.1538 12.2142 63.9126 10.9494 62.8144 10.4098L61.8839 9.95262L33.5167 9.92698C17.9147 9.91292 4.91739 9.95741 4.63389 10.0257ZM0.269968 27.2376V29.7187L20.9044 29.717L41.5389 29.7154L42.4486 29.2855C42.949 29.049 45.2402 28.01 47.5403 26.9766C49.8403 25.9433 51.85 25.0231 52.0063 24.9322C52.1967 24.8212 43.7198 24.7649 26.2801 24.7615L0.269968 24.7565V27.2376ZM53.0462 29.8834C47.6396 32.3392 43.0494 34.505 42.8456 34.6964C42.0971 35.3996 42.0955 35.4274 42.1625 45.9444C42.2227 55.4043 42.2445 56.0112 42.5727 57.3578C43.4346 60.8932 44.8809 63.6978 46.9146 65.7769C48.368 67.263 61.7909 77.4766 62.7617 77.8352C63.971 78.282 64.116 78.1952 71.5085 72.5958C75.3187 69.7098 78.7537 67.0881 79.1419 66.7697C80.2309 65.8765 81.9114 63.697 82.7118 62.1398C84.1408 59.3593 84.7346 56.7373 84.96 52.214C85.1251 48.904 85.1377 33.9744 84.9746 35.144L84.8754 35.8554L84.6557 35.3529C84.5348 35.0765 84.2371 34.7095 83.9941 34.5375C83.7509 34.3653 79.235 32.2702 73.9585 29.8816C67.0384 26.7488 64.1575 25.5218 63.6206 25.4785C62.9423 25.4236 62.0048 25.8143 53.0462 29.8834ZM0.437028 42.8271L0.438682 50.9734L0.825568 51.8004C1.33188 52.8825 2.4444 53.9792 3.5781 54.5141L4.48783 54.9432L20.9044 54.9868L37.321 55.0307V44.8557V34.6809H18.8782H0.435374L0.437028 42.8271ZM72.4699 42.4528C72.0668 42.6528 69.7754 44.8153 66.6042 47.9885L61.4001 53.1958L59.0782 50.9119C56.5823 48.4566 56.1987 48.2391 54.9848 48.5899C54.279 48.7938 53.9816 49.0317 53.5523 49.7358C53.1461 50.4024 53.1031 51.1729 53.4299 51.9298C53.5563 52.2226 55.1379 53.9261 56.9448 55.7156C59.7207 58.4648 60.3259 58.9869 60.8501 59.0834C62.352 59.3603 62.1918 59.4859 69.0562 52.6558C76.4158 45.3327 76.507 45.2068 75.6854 43.5096C75.4379 42.9985 75.1518 42.7123 74.6407 42.4649C73.7612 42.0391 73.3083 42.0367 72.4699 42.4528Z"/>
</svg>
