<svg width="24" height="24" viewBox="0 0 24 24" fill="currentColor"
	xmlns="http://www.w3.org/2000/svg">
	<g id="Globe alt" clip-path="url(#clip0_55_868)">
		<path id="Vector" fill-rule="evenodd" clip-rule="evenodd" d="M2.58088 -0.102684C2.21228 0.00431305 1.87767 0.296619 1.70147 0.665453L1.58936 0.900199V11.8629V22.8255L1.70006 23.0603C1.83551 23.3474 2.0765 23.5921 2.37383 23.7439L2.59783 23.8584H7.8092H13.0206L13.2893 23.7264C13.6119 23.568 13.8548 23.2983 13.9827 22.9566C14.076 22.707 14.0769 22.6041 14.0769 11.8629C14.0769 1.12166 14.076 1.01875 13.9827 0.769117C13.8548 0.42742 13.6119 0.157696 13.2893 -0.000710517L13.0206 -0.132685L7.87962 -0.140619C4.65153 -0.145596 2.67999 -0.131464 2.58088 -0.102684ZM13.949 0.117555C14.0935 0.272065 14.2178 0.512257 14.2178 0.636861C14.2178 0.68827 14.2366 0.74198 14.2596 0.756159C14.3609 0.818789 21.8908 3.54819 21.9098 3.52917C21.9521 3.48687 21.7715 3.09489 21.6625 2.99249C21.5928 2.92705 20.0962 2.34192 17.6912 1.43983C14.4925 0.239998 13.8519 0.013609 13.949 0.117555ZM2.74999 0.614748C2.52332 0.696205 2.459 0.751652 2.3674 0.94466C2.2997 1.08729 2.29266 2.11905 2.29266 11.8707C2.29266 22.2856 2.29552 22.6446 2.38012 22.8028C2.42825 22.8927 2.53914 23.0086 2.62661 23.0603C2.78299 23.1526 2.86994 23.1542 7.84098 23.1542C12.8736 23.1542 12.8969 23.1537 13.026 23.0573C13.0973 23.0041 13.1992 22.9022 13.2524 22.8309L13.3492 22.7012V11.8629V1.02447L13.2524 0.8948C13.1992 0.823484 13.0973 0.721604 13.026 0.668364C12.8971 0.572165 12.865 0.571507 7.91141 0.56146C3.824 0.55315 2.89469 0.562728 2.74999 0.614748ZM14.3117 12.0519V22.8044L14.4408 22.7363C14.5118 22.6988 16.2284 21.7386 18.2554 20.6026L21.9409 18.5372L21.9528 11.2613C21.9641 4.36421 21.9604 3.98387 21.8824 3.9535C21.6906 3.8789 14.3545 1.29927 14.3341 1.29927C14.3218 1.29927 14.3117 6.13795 14.3117 12.0519ZM3.84715 1.8343C3.62029 1.96003 3.61066 2.02698 3.60888 3.49649C3.6071 4.9899 3.62005 5.07568 3.86414 5.1869C3.95644 5.22897 4.96215 5.24301 7.88108 5.24301H11.7749L11.9282 5.10601L12.0816 4.96901V3.50588V2.04276L11.9282 1.90576L11.7749 1.76876L7.86713 1.7704C4.71369 1.77177 3.93771 1.78411 3.84715 1.8343ZM10.1801 4.60919V4.77351H10.8844H11.5886V4.60919V4.44487H10.8844H10.1801V4.60919ZM3.91241 6.78975C3.86076 6.81093 3.77625 6.87515 3.72461 6.93248C3.63573 7.03121 3.63005 7.11253 3.61803 8.45213C3.60606 9.7915 3.61038 9.87559 3.69808 10.0177C3.76222 10.1216 3.84841 10.1834 3.97795 10.2183C4.10598 10.2528 5.36469 10.2647 7.95906 10.2559C12.0175 10.2422 11.8572 10.2518 12.0159 10.0131C12.1182 9.85934 12.1382 7.29117 12.039 7.05361C11.9049 6.73271 12.0755 6.74506 7.82244 6.74834C5.72357 6.74999 3.96405 6.76863 3.91241 6.78975ZM10.0393 9.72666V9.89099H10.7435H11.4478V9.72666V9.56234H10.7435H10.0393V9.72666ZM3.60724 12.7784V13.1305H7.85615H12.1051V12.7784V12.4262H7.85615H3.60724V12.7784ZM3.63855 14.3355C3.62132 14.3527 3.60724 14.5217 3.60724 14.7111V15.0554H7.85615H12.1051V14.6798V14.3042H7.88746C5.56774 14.3042 3.65573 14.3183 3.63855 14.3355ZM3.60724 16.5343V16.8864H7.83267H12.0581V16.5343V16.1822H7.83267H3.60724V16.5343ZM7.59417 18.7175C7.13707 18.7959 6.73204 19.1143 6.5233 19.5594C6.26856 20.1026 6.39738 20.8058 6.82847 21.2254C7.05974 21.4505 7.27477 21.5604 7.59943 21.6196C8.50592 21.7847 9.33505 21.093 9.33505 20.1716C9.33505 19.2574 8.50217 18.5617 7.59417 18.7175ZM7.51384 19.5C6.96556 19.7702 6.97031 20.5861 7.52158 20.8477C7.85704 21.0069 8.24615 20.912 8.47203 20.6158C8.58428 20.4687 8.60733 20.3932 8.60733 20.1729C8.60733 19.9526 8.58428 19.8771 8.47203 19.73C8.24615 19.4339 7.84394 19.3373 7.51384 19.5Z" fill="white"/>
	</g>
	<defs>
		<clipPath id="clip0_55_868">
			<rect width="24" height="24" fill="currentColor"/>
		</clipPath>
	</defs>
</svg>
