<svg width="24" height="24" viewBox="0 0 24 24" fill="currentColor"
	xmlns="http://www.w3.org/2000/svg">
	<g id="Annotation" clip-path="url(#clip0_55_863)">
		<path id="Vector" fill-rule="evenodd" clip-rule="evenodd" d="M7.67935 0.0524676C7.49384 0.138362 7.32751 0.31506 7.25699 0.501173C7.22423 0.587619 7.20355 1.13529 7.20355 1.91606V3.18995H8.81085L8.79603 1.84123C8.78206 0.569638 8.7753 0.484595 8.67793 0.354326C8.62114 0.278298 8.51576 0.172119 8.44379 0.118379C8.27781 -0.00553012 7.87894 -0.0399381 7.67935 0.0524676ZM15.6928 0.0524676C15.5073 0.138362 15.341 0.31506 15.2705 0.501173C15.2377 0.587619 15.217 1.13529 15.217 1.91606V3.18995H16.8244L16.8095 1.84123C16.7956 0.569638 16.7888 0.484595 16.6914 0.354326C16.6346 0.278298 16.5293 0.172119 16.4573 0.118379C16.2913 -0.00553012 15.8924 -0.0399381 15.6928 0.0524676ZM11.6861 0.853817C11.5006 0.939712 11.3343 1.11641 11.2637 1.30252C11.2333 1.38276 11.2103 1.81974 11.2103 2.31673V3.18995H12.8191L12.8035 2.24185C12.7866 1.20816 12.774 1.16129 12.4505 0.919728C12.2846 0.79582 11.8857 0.761411 11.6861 0.853817ZM6.60815 4.07048C5.76157 4.29812 5.09755 4.9716 4.87423 5.82905C4.76038 6.26598 4.76224 16.9493 4.87618 17.3868C5.10121 18.2506 5.76873 18.916 6.63724 19.1422C7.06737 19.2543 16.9559 19.2543 17.386 19.1422C18.2546 18.916 18.9221 18.2506 19.1471 17.3868C19.2137 17.1311 19.2238 16.3707 19.2238 11.6041C19.2238 6.8376 19.2137 6.07716 19.1471 5.82148C18.9221 4.95763 18.2546 4.29226 17.386 4.06603C16.9636 3.95599 7.01854 3.9601 6.60815 4.07048ZM0.464699 7.26717C-0.00459143 7.47156 -0.15224 8.11069 0.178868 8.50425C0.420725 8.79164 0.476869 8.7994 2.31872 8.7994H3.99815V7.1967L2.3078 7.19865C1.01598 7.20016 0.581446 7.21628 0.464699 7.26717ZM20.0251 8.80311L21.7745 8.78873C23.4514 8.77496 23.5296 8.7701 23.6621 8.67108C23.9249 8.4748 24.0068 8.31473 24.0068 7.99805C24.0068 7.68137 23.9249 7.5213 23.6621 7.32502C23.5296 7.226 23.4514 7.22114 21.7745 7.20737L20.0251 7.19299V8.80311ZM1.26605 11.2739C0.796758 11.4783 0.649109 12.1174 0.980217 12.511C1.21461 12.7895 1.31258 12.8061 2.7194 12.8061H3.99815V11.2034L2.70848 11.2054C1.74986 11.2069 1.37959 11.2244 1.26605 11.2739ZM20.0251 12.8108L21.3739 12.7959C22.6455 12.782 22.7305 12.7752 22.8608 12.6778C23.1236 12.4815 23.2055 12.3215 23.2055 12.0048C23.2055 11.6881 23.1236 11.5281 22.8608 11.3318C22.7305 11.2344 22.6455 11.2276 21.3739 11.2137L20.0251 11.1988V12.8108ZM0.464699 14.4793C-0.00459143 14.6837 -0.15224 15.3228 0.178868 15.7164C0.420725 16.0038 0.476869 16.0115 2.31872 16.0115H3.99815V14.4088L2.3078 14.4108C1.01598 14.4123 0.581446 14.4284 0.464699 14.4793ZM20.0251 16.8166L21.7745 16.8022C23.4514 16.7885 23.5296 16.7836 23.6621 16.6846C23.9249 16.4883 24.0068 16.3282 24.0068 16.0115C24.0068 15.6949 23.9249 15.5348 23.6621 15.3385C23.5296 15.2395 23.4514 15.2346 21.7745 15.2209L20.0251 15.2065V16.8166ZM7.21422 21.7676C7.22799 23.4446 7.23285 23.5227 7.33186 23.6552C7.52814 23.918 7.68821 24 8.0049 24C8.32158 24 8.48165 23.918 8.67793 23.6552C8.77695 23.5227 8.78181 23.4446 8.79558 21.7676L8.80995 20.0183H7.19984L7.21422 21.7676ZM11.2205 21.367C11.2345 22.6386 11.2412 22.7237 11.3386 22.8539C11.5349 23.1167 11.695 23.1987 12.0116 23.1987C12.3283 23.1987 12.4883 23.1167 12.6847 22.8539C12.782 22.7237 12.7888 22.6386 12.8028 21.367L12.8176 20.0183H11.2057L11.2205 21.367ZM15.2277 21.7676C15.2415 23.4446 15.2463 23.5227 15.3454 23.6552C15.5416 23.918 15.7017 24 16.0184 24C16.3351 24 16.4951 23.918 16.6914 23.6552C16.7904 23.5227 16.7953 23.4446 16.8091 21.7676L16.8235 20.0183H15.2133L15.2277 21.7676Z"/>
	</g>
	<defs>
		<clipPath id="clip0_55_863">
			<rect width="24" height="24"/>
		</clipPath>
	</defs>
</svg>
