<svg width="437" height="437" viewBox="0 0 437 437" fill="none" xmlns="http://www.w3.org/2000/svg">
<path fill-rule="evenodd" clip-rule="evenodd" d="M153.115 0.485268C149.075 1.78085 145.679 4.76 143.788 8.66855C141.553 13.2903 141.507 17.3069 143.637 22.0019C145.205 25.4562 150.204 30.1835 152.29 30.1835C153.004 30.1835 153.307 33.9185 153.333 43.0434L153.371 55.9034L169.886 67.9621L186.403 80.0208V113.548V147.076L177.909 146.826L169.414 146.577L169.149 127.832L168.882 109.087L154.015 97.0988L139.147 85.1107H125.418H111.69L110.6 82.4777C107.208 74.2839 94.795 71.2158 87.5168 76.7705C81.4052 81.4358 79.4545 89.1029 82.624 96.0089C84.5276 100.157 86.4705 102.016 90.79 103.823C97.7563 106.735 105.708 104.129 109.635 97.6454L111.914 93.8842L123.503 93.8572L135.092 93.8293L147.679 103.996L160.266 114.163V130.479V146.795L157.508 147.347C153.763 148.097 149.131 151.785 147.417 155.382L146.005 158.347H110.656H75.3075L56.3663 139.377L37.4251 120.407L38.3172 117.363C39.55 113.155 38.6021 108.464 35.7122 104.472C32.3197 99.785 28.0089 97.9035 21.7108 98.3595C12.5273 99.0247 7.2869 105.29 7.97342 114.785C8.72006 125.115 18.1606 131.703 27.5698 128.459L31.1636 127.22L51.4935 147.579L71.8235 167.937H108.64H145.456V179.708V191.478H120.626C102.424 191.478 95.796 191.209 95.796 190.47C95.796 188.78 91.4931 183.702 88.9988 182.447C83.0021 179.43 76.2728 180.099 71.4105 184.193C67.7096 187.309 66.0795 190.834 66.0412 195.802C66.0003 201.123 68.1609 205.732 72.1101 208.746C74.7883 210.79 75.994 211.095 81.4209 211.095C86.8686 211.095 88.0483 210.795 90.7734 208.714C92.4889 207.405 94.416 205.149 95.0572 203.701L96.2212 201.068H120.838H145.456V214.146V227.224L110.389 227.275L75.3223 227.328L63.2768 243.841L51.2313 260.355H40.8429C34.5178 260.355 30.4544 260.015 30.4544 259.485C30.4544 257.922 24.3986 251.865 21.7283 250.758C17.5168 249.013 10.222 250.041 6.46359 252.909C2.90988 255.621 0 261.133 0 265.15C0 274.208 9.85874 282.444 18.7104 280.782C22.8016 280.014 28.1614 275.996 29.5414 272.663L30.6661 269.945H43.1856H55.7059L65.0785 257.17C70.2335 250.143 75.9304 242.492 77.7382 240.169L81.0262 235.943H113.24H145.456V244.661V253.38H127.716H109.976L97.6587 268.611L85.3414 283.842V297.296V310.75L82.4132 312.479C75.013 316.849 72.1955 325.298 75.5828 332.962C80.7997 344.765 97.8992 345.017 103.532 333.373C105.797 328.69 105.851 324.688 103.713 319.976C102.145 316.522 97.1464 311.794 95.0607 311.794C94.3472 311.794 94.0562 308.298 94.0632 299.806L94.0719 287.818L104.124 275.394L114.175 262.97H129.815H145.456V271.041C145.456 275.48 145.84 280.452 146.309 282.091C147.274 285.456 150.815 289.539 154.386 291.406L156.782 292.658V327.736V362.813L138.19 381.404L119.598 399.995L115.974 399.018C109.039 397.15 101.648 400.568 98.4846 407.109C95.4345 413.413 96.2952 419.731 100.861 424.56C104.31 428.209 107.355 429.496 112.523 429.492C122.789 429.485 130.019 419.83 127.254 409.822L126.307 406.391L146.336 386.332L166.365 366.272V329.879V293.485H178.126H189.888V317.264V341.041L186.775 342.719C179.524 346.626 177.231 356.802 181.929 364.216C184.93 368.951 189.292 371.26 195.15 371.214C200.114 371.176 203.637 369.545 206.75 365.842C213.087 358.306 211.308 347.976 202.711 342.381L199.471 340.274V316.879V293.485H212.529H225.588L225.815 327.616L226.044 361.748L242.794 374.043L259.545 386.339L259.565 396.583C259.58 403.763 259.284 406.827 258.579 406.827C256.493 406.827 251.494 411.555 249.926 415.009C247.788 419.72 247.842 423.723 250.108 428.406C255.65 439.865 272.233 439.865 277.776 428.406C281.323 421.074 279.179 413.295 272.269 408.421L268.298 405.62L268.272 393.363L268.246 381.107L251.719 369.057L235.191 357.005V325.246V293.485H243.904H252.616L252.652 310.705L252.689 327.924L267.568 339.912L282.447 351.9H296.176H309.905L310.995 354.533C313.284 360.063 320.386 363.777 327.203 363.008C337.299 361.869 343.624 349.895 338.959 340.749C336.921 336.753 334.943 334.919 330.805 333.188C323.838 330.276 315.887 332.882 311.959 339.365L309.681 343.127L298.092 343.154L286.503 343.181L273.915 333.015L261.328 322.848V308.278V293.709L270.725 293.322C278.367 293.007 280.771 292.57 283.591 290.984C288.887 288.006 291.104 284.119 291.619 276.913L292.055 270.817H326.964H361.874L380.939 289.84L400.004 308.863L399.024 312.509C397.601 317.795 399.137 322.642 403.671 327.18C410.808 334.322 421.531 332.921 427.493 324.069C429.826 320.604 430.208 313.115 428.245 309.353C424.479 302.14 416.03 298.657 408.889 301.375C406.557 302.262 405.884 301.688 386.391 282.194L366.296 262.098H329.059H291.821V249.892V237.686H316.192H340.565L341.849 240.173C342.556 241.54 344.518 243.875 346.209 245.36C355.86 253.841 371.303 246.479 371.303 233.399C371.303 228.432 369.618 224.91 365.52 221.309C358.458 215.104 346.37 217.734 341.862 226.456L340.565 228.968H316.192H291.821V215.89V202.812H326.602H361.383L373.849 185.811L386.315 168.809H396.463H406.61L407.7 171.442C410.006 177.012 417.255 180.785 423.683 179.762C438.667 177.379 442 157.34 428.555 150.476C424.639 148.477 419.283 148.259 415.275 149.934C412.484 151.101 406.822 156.757 406.822 158.378C406.822 158.879 401.781 159.219 394.341 159.219H381.861L369.382 176.22L356.903 193.221H324.362H291.821V184.503V175.784L309.899 175.732L327.977 175.679L339.956 160.704L351.935 145.73V132.026V118.323L355.062 116.839C361.21 113.919 364.738 104.873 362.443 97.914C361.881 96.2104 359.898 93.4396 358.037 91.756C350.118 84.5963 337.788 87.2921 333.437 97.1354C330.212 104.431 332.945 112.573 339.941 116.507L343.223 118.353V130.07V141.786L333.009 154.426L322.795 167.066H307.308H291.821L291.802 163.36C291.768 156.697 287.527 150.053 281.963 147.943C280.614 147.431 276.203 147.013 272.162 147.013H264.813V110.605V74.1976L283.405 55.6069L301.997 37.0162L305.621 37.9927C312.498 39.8454 320.006 36.3196 323.187 29.7423C327.021 21.8171 323.986 12.8988 316.041 8.74528C312.596 6.94401 305.016 7.17854 301.723 9.18818C295.412 13.0392 292.31 20.6898 294.441 27.1503L295.512 30.3988L275.37 50.5693L255.23 70.7389V108.876V147.013H243.468H231.707V121.491V95.9697L234.819 94.2914C239.056 92.0089 242.161 86.5118 242.161 81.2937C242.161 71.1897 233.729 64.2331 223.591 65.9742C215.084 67.4363 209.131 76.9797 211.595 85.2092C212.834 89.3479 217.193 94.5233 220.042 95.2391L222.123 95.7622V121.387V147.013H209.064H196.006L195.778 111.131L195.551 75.2508L178.806 62.9611L162.061 50.6722L162.035 40.4278C162.017 33.2446 162.309 30.1835 163.016 30.1835C165.102 30.1835 170.101 25.4562 171.668 22.0019C172.564 20.028 173.305 17.0663 173.316 15.4194C173.343 11.0609 170.142 5.11746 166.449 2.67189C162.916 0.33182 156.748 -0.679538 153.115 0.485268ZM153.297 11.0025C150.988 13.313 150.994 18.0716 153.308 20.1675C157.327 23.8067 163.751 21.0359 163.751 15.6626C163.751 11.9956 161.145 9.2588 157.653 9.2588C156.2 9.2588 154.265 10.0339 153.297 11.0025ZM305.395 18.0777C302.256 20.5485 302.503 25.2845 305.902 27.8129C312.256 32.5401 319.275 22.9418 313.048 18.0411C310.142 15.7524 308.338 15.7611 305.395 18.0777ZM222.52 76.7888C221.343 77.9658 220.381 79.9449 220.381 81.1873C220.381 83.6442 223.866 87.7263 225.963 87.7263C228.382 87.7263 231.508 85.8047 232.448 83.7401C234.279 79.7174 230.665 74.6484 225.963 74.6484C225.245 74.6484 223.696 75.6118 222.52 76.7888ZM92.0106 84.9616C88.5239 88.817 91.4887 95.573 96.6673 95.573C98.1196 95.573 100.055 94.7979 101.023 93.8293C104.921 89.9286 102.001 83.367 96.3667 83.367C94.6495 83.367 92.86 84.0217 92.0106 84.9616ZM346.062 97.1197C341.678 97.8303 339.981 104.57 343.388 107.745C347.485 111.566 353.678 108.782 353.678 103.119C353.678 98.9925 350.407 96.4152 346.062 97.1197ZM19.883 108.205C14.2793 111.301 16.9209 119.985 23.4672 119.985C25.9607 119.985 29.5832 116.193 29.5832 113.582C29.5832 108.869 24.1407 105.851 19.883 108.205ZM156.481 158.198C155.169 159.649 155.039 165.202 155.039 220.036V280.281L157.335 282.088C159.606 283.876 160.26 283.895 218.638 283.895C277.016 283.895 277.67 283.876 279.942 282.088L282.237 280.281V219.885C282.237 162.481 282.158 159.418 280.644 158.046C279.194 156.732 273.62 156.603 218.487 156.603C160.92 156.603 157.851 156.682 156.481 158.198ZM416.831 160.102C414.583 162.588 414.779 166.961 417.228 168.945C423.25 173.824 431.44 165.546 425.989 160.091C423.68 157.78 418.925 157.786 416.831 160.102ZM172.464 219.813V266.458H218.638H264.813V219.813V173.169H218.638H172.464V219.813ZM181.176 219.813V256.867H218.638H256.101V219.813V182.759H218.638H181.176V219.813ZM76.928 191.971C75.1176 193.783 74.797 194.735 75.2448 196.973C76.0054 200.78 77.787 202.289 81.5211 202.289C87.4097 202.289 89.985 196.045 85.8162 191.874C83.0562 189.111 79.7499 189.147 76.928 191.971ZM351.128 229.521C350.134 230.785 349.321 232.497 349.321 233.327C349.321 236.251 352.724 239.43 355.856 239.43C358.987 239.43 362.39 236.251 362.39 233.327C362.39 230.403 358.987 227.224 355.856 227.224C353.736 227.224 352.437 227.855 351.128 229.521ZM13.0448 259.732C11.8547 260.335 10.5104 261.882 10.0574 263.172C7.51777 270.397 18.2887 275.089 21.2473 268.047C22.6692 264.663 22.1447 262.541 19.3394 260.334C16.7902 258.327 15.9738 258.249 13.0448 259.732ZM409.935 311.42C405.96 315.397 408.321 321.598 413.997 322.086C416.478 322.299 417.435 321.894 418.919 320.007C421.234 317.061 421.243 315.257 418.956 312.348C416.856 309.676 412.16 309.193 409.935 311.42ZM87.955 320.268C83.4778 321.886 82.0603 327.692 85.3414 330.975C90.6767 336.315 99.2112 328.146 94.2714 322.429C92.5682 320.458 89.9292 319.555 87.955 320.268ZM320.571 343.181C316.673 347.082 319.594 353.644 325.228 353.644C328.835 353.644 331.026 351.394 331.026 347.69C331.026 344.18 328.351 341.438 324.927 341.438C323.475 341.438 321.539 342.213 320.571 343.181ZM192.209 349.9C189.889 350.499 188.15 355.141 189.16 358.04C189.955 360.321 193.01 362.362 195.632 362.362C196.35 362.362 197.899 361.399 199.075 360.222C204.083 355.211 199.327 348.061 192.209 349.9ZM109.3 408.741C106.862 410.124 106.279 411.21 106.264 414.392C106.25 417.37 109.497 420.777 112.349 420.777C115.271 420.777 118.448 417.372 118.448 414.238C118.448 412.117 117.817 410.817 116.152 409.507C113.579 407.481 111.859 407.289 109.3 408.741ZM262.199 415.301C257.722 416.919 256.305 422.725 259.586 426.008C263.484 429.909 270.04 426.986 270.04 421.348C270.04 417.257 265.811 413.996 262.199 415.301Z" fill="white"/>
</svg>
