<svg xmlns="http://www.w3.org/2000/svg" width="44" height="480" viewBox="0 0 44 480" fill="none">
  <path d="M0 250H4V255H0V250Z" fill="#E5E7EB"/>
  <path d="M20 250H24V255H20V250Z" fill="#E5E7EB"/>
  <path d="M40 250H44V255H40V250Z" fill="#E5E7EB"/>
  <path d="M0 275H4V280H0V275Z" fill="#E5E7EB"/>
  <path d="M20 275H24V280H20V275Z" fill="#E5E7EB"/>
  <path d="M40 275H44V280H40V275Z" fill="#E5E7EB"/>
  <path d="M0 300H4V305H0V300Z" fill="#E5E7EB"/>
  <path d="M20 300H24V305H20V300Z" fill="#E5E7EB"/>
  <path d="M40 300H44V305H40V300Z" fill="#E5E7EB"/>
  <path d="M0 325H4V330H0V325Z" fill="#E5E7EB"/>
  <path d="M20 325H24V330H20V325Z" fill="#E5E7EB"/>
  <path d="M40 325H44V330H40V325Z" fill="#E5E7EB"/>
  <path d="M0 350H4V355H0V350Z" fill="#E5E7EB"/>
  <path d="M20 350H24V355H20V350Z" fill="#E5E7EB"/>
  <path d="M40 350H44V355H40V350Z" fill="#E5E7EB"/>
  <path d="M0 375H4V380H0V375Z" fill="#E5E7EB"/>
  <path d="M20 375H24V380H20V375Z" fill="#E5E7EB"/>
  <path d="M40 375H44V380H40V375Z" fill="#E5E7EB"/>
  <path d="M0 400H4V405H0V400Z" fill="#E5E7EB"/>
  <path d="M20 400H24V405H20V400Z" fill="#E5E7EB"/>
  <path d="M40 400H44V405H40V400Z" fill="#E5E7EB"/>
  <path d="M0 425H4V430H0V425Z" fill="#E5E7EB"/>
  <path d="M20 425H24V430H20V425Z" fill="#E5E7EB"/>
  <path d="M40 425H44V430H40V425Z" fill="#E5E7EB"/>
  <path d="M0 450H4V455H0V450Z" fill="#E5E7EB"/>
  <path d="M20 450H24V455H20V450Z" fill="#E5E7EB"/>
  <path d="M40 450H44V455H40V450Z" fill="#E5E7EB"/>
  <path d="M0 475H4V480H0V475Z" fill="#E5E7EB"/>
  <path d="M20 475H24V480H20V475Z" fill="#E5E7EB"/>
  <path d="M40 475H44V480H40V475Z" fill="#E5E7EB"/>
  <path d="M0 0H4V5H0V0Z" fill="#E5E7EB"/>
  <path d="M20 0H24V5H20V0Z" fill="#E5E7EB"/>
  <path d="M40 0H44V5H40V0Z" fill="#E5E7EB"/>
  <path d="M0 25H4V30H0V25Z" fill="#E5E7EB"/>
  <path d="M40 25H44V30H40V25Z" fill="#E5E7EB"/>
  <path d="M0 50H4V55H0V50Z" fill="#E5E7EB"/>
  <path d="M20 50H24V55H20V50Z" fill="#E5E7EB"/>
  <path d="M40 50H44V55H40V50Z" fill="#E5E7EB"/>
  <path d="M0 75H4V80H0V75Z" fill="#E5E7EB"/>
  <path d="M20 75H24V80H20V75Z" fill="#E5E7EB"/>
  <path d="M40 75H44V80H40V75Z" fill="#E5E7EB"/>
  <path d="M0 100H4V105H0V100Z" fill="#E5E7EB"/>
  <path d="M20 100H24V105H20V100Z" fill="#E5E7EB"/>
  <path d="M40 100H44V105H40V100Z" fill="#E5E7EB"/>
  <path d="M0 125H4V130H0V125Z" fill="#E5E7EB"/>
  <path d="M20 125H24V130H20V125Z" fill="#E5E7EB"/>
  <path d="M40 125H44V130H40V125Z" fill="#E5E7EB"/>
  <path d="M0 150H4V155H0V150Z" fill="#E5E7EB"/>
  <path d="M20 150H24V155H20V150Z" fill="#E5E7EB"/>
  <path d="M40 150H44V155H40V150Z" fill="#E5E7EB"/>
  <path d="M0 175H4V180H0V175Z" fill="#E5E7EB"/>
  <path d="M20 175H24V180H20V175Z" fill="#E5E7EB"/>
  <path d="M40 175H44V180H40V175Z" fill="#E5E7EB"/>
  <path d="M0 200H4V205H0V200Z" fill="#E5E7EB"/>
  <path d="M20 200H24V205H20V200Z" fill="#E5E7EB"/>
  <path d="M40 200H44V205H40V200Z" fill="#E5E7EB"/>
  <path d="M0 225H4V230H0V225Z" fill="#E5E7EB"/>
  <path d="M20 225H24V230H20V225Z" fill="#E5E7EB"/>
  <path d="M40 225H44V230H40V225Z" fill="#E5E7EB"/>
  <path d="M20 25H24V30H20V25Z" fill="#E5E7EB"/>
</svg>