<?xml version="1.0" encoding="UTF-8"?>
<!DOCTYPE svg PUBLIC "-//W3C//DTD SVG 1.1//EN" "http://www.w3.org/Graphics/SVG/1.1/DTD/svg11.dtd">
<!-- Creator: CorelDRAW -->
<svg xmlns="http://www.w3.org/2000/svg" xml:space="preserve" width="96.7115mm" height="22.3249mm" version="1.1" style="shape-rendering:geometricPrecision; text-rendering:geometricPrecision; image-rendering:optimizeQuality; fill-rule:evenodd; clip-rule:evenodd"
viewBox="0 0 10692.87 2468.34"
 xmlns:xlink="http://www.w3.org/1999/xlink"
 xmlns:xodm="http://www.corel.com/coreldraw/odm/2003">
 <defs>
  <style type="text/css">
   <![CDATA[
    .fil0 {fill:#FCD34D}
   ]]>
  </style>
 </defs>
 <g id="Camada_x0020_1">
  <metadata id="CorelCorpID_0Corel-Layer"/>
  <path id="Rospirski" class="fil0" d="M2463.57 26.04l0 552.86c0,7.16 -2.53,13.32 -7.62,18.42l-762.94 762.94 1063.65 1063.63c7.63,7.61 9.77,18.44 5.64,28.37 -4.09,9.95 -13.29,16.09 -24.05,16.09l-603.74 0c-7.19,0 -13.36,-2.55 -18.42,-7.63l-1072.39 -1072.38c-10.16,-10.14 -10.16,-26.67 -0.02,-36.83l813.38 -813.51c22.26,-22.28 4.6,-58.98 -26.33,-58.95l-1336.77 1.3c-7.16,0.02 -13.32,-2.51 -18.4,-7.55l-431.08 -428.26c-7.65,-7.6 -9.85,-18.44 -5.75,-28.42 4.14,-9.95 13.32,-16.12 24.08,-16.12l2374.71 0c14.34,0 26.04,11.7 26.04,26.04zm-2453.16 2416.4l-10.39 -1871.53c-0.06,-10.79 6.06,-20.03 16.01,-24.19 9.95,-4.16 20.84,-2.01 28.45,5.62l431.02 431.06c5.07,5.06 7.63,11.23 7.63,18.39l0.86 833.44c0.02,31.61 32.36,43.63 54.33,21.68l386.94 -386.94c10.13,-10.13 26.69,-10.13 36.83,0l294.25 294.3c10.16,10.13 10.16,26.69 0,36.83l-136.46 136.45 -528.61 523.29c-5.07,5.01 -11.21,7.52 -18.34,7.52l-536.48 0c-14.28,0 -25.96,-11.6 -26.04,-25.91zm3936.6 -849.71c0,40.69 -5.16,77.44 -15.48,110.22 -10.35,32.21 -24.01,60.76 -41.01,85.64 -17,24.29 -36.75,45.24 -59.22,62.88 -22.49,17 -46.18,30.98 -71.07,41.92 -24.29,10.92 -49.19,19.13 -74.71,24.58 -24.91,4.86 -48.6,7.3 -71.07,7.3l-427.3 0c-32.8,0 -68.64,-5.78 -107.54,-17.29 -38.86,-11.55 -74.98,-30.38 -108.4,-56.5 -32.8,-26.72 -60.45,-61.04 -82.93,-102.97 -21.86,-42.52 -32.77,-94.44 -32.77,-155.77l0 -320.74c0,-60.72 10.91,-112.05 32.77,-153.97 22.49,-42.52 50.13,-76.82 82.93,-102.94 33.41,-26.72 69.53,-45.87 108.4,-57.42 38.9,-11.54 74.73,-17.31 107.54,-17.31l427.3 0c60.73,0 112.37,10.95 154.89,32.8 42.52,21.86 76.82,49.5 102.95,82.9 26.12,32.8 44.94,68.65 56.5,107.51 12.14,38.9 18.22,75.02 18.22,108.42l0 320.74zm-236.87 -318.9c0,-32.8 -8.2,-57.11 -24.61,-72.91 -16.4,-15.78 -40.09,-23.66 -71.07,-23.66l-425.5 0c-31.58,0 -55.56,8.17 -71.96,24.58 -16.41,15.8 -24.61,39.18 -24.61,70.15l0 320.74c0,30.95 8.2,54.64 24.61,71.04 16.4,16.41 40.38,24.61 71.96,24.61l425.5 0c32.19,0 56.19,-8.2 71.99,-24.61 15.78,-16.4 23.69,-40.09 23.69,-71.04l0 -318.9zm1391.26 318.9c0,40.69 -5.17,77.44 -15.49,110.22 -10.35,32.21 -24,60.76 -41.01,85.64 -17,24.29 -36.75,45.24 -59.22,62.88 -22.49,17 -46.18,30.98 -71.07,41.92 -24.29,10.92 -49.21,19.13 -74.7,24.58 -24.92,4.86 -48.62,7.3 -71.08,7.3l-641.43 0 0 -236.88 639.61 0c32.21,0 56.5,-8.2 72.91,-24.61 16.37,-16.4 24.6,-40.09 24.6,-71.04 -3.05,-63.19 -34.95,-94.76 -95.68,-94.76l-367.16 0c-52.24,0 -96.59,-9.12 -133.03,-27.35 -36.44,-18.2 -66.22,-40.98 -89.3,-68.33 -22.47,-27.32 -38.86,-56.79 -49.19,-88.36 -9.71,-31.58 -14.57,-61.04 -14.57,-88.39 0,-52.85 9.41,-97.18 28.24,-133.01 18.83,-36.46 42.52,-65.9 71.07,-88.39 28.55,-22.47 59.53,-38.59 92.94,-48.29 33.4,-10.33 64.67,-15.49 93.85,-15.49l582.19 0 0 236.91 -580.39 0c-12.15,0 -21.87,1.51 -29.16,4.54 -6.68,2.43 -11.83,6.08 -15.49,10.95 -3.03,4.23 -4.85,9.09 -5.45,14.57 -0.61,4.85 -0.92,9.72 -0.92,14.57 0.6,9.72 2.43,17.33 5.46,22.78 3.05,5.46 6.69,9.41 10.95,11.83 4.85,2.43 10.03,3.95 15.49,4.58 6.06,0 11.83,0 17.31,0l367.16 0c60.73,0 112.38,10.91 154.9,32.78 42.52,21.88 76.81,49.52 102.96,82.92 26.09,32.78 44.93,68.63 56.48,107.51 12.14,38.86 18.23,75.02 18.23,108.43zm1252.76 0c0,40.69 -5.16,77.44 -15.49,110.22 -10.32,32.21 -24,60.76 -41.01,85.64 -17,24.29 -36.75,45.24 -59.21,62.88 -22.49,17 -46.16,30.98 -71.07,41.92 -24.29,10.92 -48.9,19.13 -73.79,24.58 -24.92,4.86 -48.62,7.3 -71.07,7.3l-427.33 0 0 -236.88 427.33 0c31.58,0 55.26,-8.2 71.07,-24.61 15.78,-16.4 23.68,-40.09 23.68,-71.04l0 -318.9c0,-32.8 -8.19,-57.11 -24.6,-72.91 -15.8,-15.78 -39.18,-23.66 -70.15,-23.66l-425.5 0c-32.19,0 -56.48,8.17 -72.87,24.58 -16.41,15.8 -24.61,39.18 -24.61,70.15l0 961.23 -236.88 0 0 -961.23c0,-40.69 5.15,-77.13 15.49,-109.34 10.32,-32.17 23.98,-60.41 40.99,-84.7 17.64,-24.92 37.67,-45.86 60.16,-62.87 22.46,-17.64 45.84,-31.9 70.15,-42.84 24.89,-10.91 49.79,-18.83 74.71,-23.69 25.49,-5.45 49.18,-8.19 71.04,-8.19l427.33 0c40.69,0 77.13,5.16 109.34,15.49 32.17,10.34 60.43,24 84.73,41.01 24.9,17 45.84,36.75 62.88,59.21 17.6,22.49 31.86,46.18 42.81,71.07 10.95,24.29 18.83,48.9 23.68,73.79 5.46,24.92 8.2,48.62 8.2,71.07l0 320.74zm442.79 -854.63l-236.88 0 0 -214.13 236.88 0 0 214.13zm0 1187.17l-236.88 0 0 -984.91 236.88 0 0 984.91zm1089.68 -748l-532.95 0c-32.21,0 -56.55,8.17 -72.93,24.58 -16.37,15.8 -24.61,39.18 -24.61,70.15l0 653.27 -236.91 0 0 -653.27c0,-40.69 5.2,-77.13 15.57,-109.34 10.29,-32.17 23.98,-60.41 40.99,-84.7 17.6,-24.92 37.67,-45.86 60.13,-62.87 22.47,-17.64 45.82,-31.9 70.13,-42.84 24.9,-10.91 49.84,-18.83 74.71,-23.69 25.52,-5.45 49.21,-8.19 71.05,-8.19l534.83 0 0 236.91zm1108.87 415.47c0,40.69 -5.21,77.44 -15.57,110.22 -10.29,32.21 -23.98,60.76 -40.99,85.64 -16.98,24.29 -36.75,45.24 -59.22,62.88 -22.46,17 -46.15,30.98 -71.04,41.92 -24.32,10.92 -49.21,19.13 -74.71,24.58 -24.89,4.86 -48.58,7.3 -71.05,7.3l-641.48 0 0 -236.88 639.63 0c32.19,0 56.53,-8.2 72.91,-24.61 16.37,-16.4 24.6,-40.09 24.6,-71.04 -3.05,-63.19 -34.97,-94.76 -95.65,-94.76l-367.16 0c-52.27,0 -96.62,-9.12 -133.06,-27.35 -36.49,-18.2 -66.18,-40.98 -89.27,-68.33 -22.47,-27.32 -38.92,-56.79 -49.21,-88.36 -9.74,-31.58 -14.57,-61.04 -14.57,-88.39 0,-52.85 9.4,-97.18 28.26,-133.01 18.81,-36.46 42.49,-65.9 71.05,-88.39 28.55,-22.47 59.49,-38.59 92.95,-48.29 33.39,-10.33 64.68,-15.49 93.86,-15.49l582.16 0 0 236.91 -580.39 0c-12.14,0 -21.84,1.51 -29.14,4.54 -6.71,2.43 -11.83,6.08 -15.49,10.95 -3.03,4.23 -4.83,9.09 -5.46,14.57 -0.63,4.85 -0.88,9.72 -0.88,14.57 0.54,9.72 2.4,17.33 5.46,22.78 3.03,5.46 6.63,9.41 10.91,11.83 4.83,2.43 10.03,3.95 15.49,4.58 6.06,0 11.81,0 17.35,0l367.16 0c60.68,0 112.37,10.91 154.87,32.78 42.5,21.88 76.84,49.52 102.99,82.92 26.04,32.78 44.9,68.63 56.44,107.51 12.17,38.86 18.27,75.02 18.27,108.43zm1323.78 332.53l-341.62 0 -477.47 -461.02c-26.67,-24.29 -39.17,-54.67 -37.33,-91.11 1.18,-17 5.46,-32.82 12.73,-47.39 7.96,-15.17 18.52,-27.92 31.94,-38.27l432.76 -348.93 378.99 0 -557.58 449.16 557.58 537.55zm-916.53 0l-236.91 0 0 -1401.3 236.91 0 0 1401.3zm1290.12 -1187.17l-236.91 0 0 -214.13 236.91 0 0 214.13zm0 1187.17l-236.91 0 0 -984.91 236.91 0 0 984.91z"/>
 </g>
</svg>
