<?xml version="1.0" encoding="UTF-8"?>
<!DOCTYPE svg PUBLIC "-//W3C//DTD SVG 1.1//EN" "http://www.w3.org/Graphics/SVG/1.1/DTD/svg11.dtd">
<!-- Creator: CorelDRAW -->
<svg xmlns="http://www.w3.org/2000/svg" xml:space="preserve" width="55.2783mm" height="49.359mm" version="1.1" style="shape-rendering:geometricPrecision; text-rendering:geometricPrecision; image-rendering:optimizeQuality; fill-rule:evenodd; clip-rule:evenodd"
viewBox="0 0 7062.66 6306.35"
 xmlns:xlink="http://www.w3.org/1999/xlink"
 xmlns:xodm="http://www.corel.com/coreldraw/odm/2003">
 <defs>
  <style type="text/css">
   <![CDATA[
    .fil0 {fill:#FCD34D}
   ]]>
  </style>
 </defs>
 <g id="Camada_x0020_1">
  <metadata id="CorelCorpID_0Corel-Layer"/>
  <path id="Logo" class="fil0" d="M6294.16 66.55l0 1412.44c0,18.32 -6.51,34.1 -19.5,47.05l-1949.22 1949.24 2717.51 2717.48c19.45,19.43 24.96,47.1 14.45,72.52 -10.55,25.4 -34.02,41.07 -61.5,41.07l-1542.5 0c-18.32,0 -34.1,-6.53 -47.05,-19.5l-2739.8 -2739.8c-25.94,-25.91 -25.94,-68.2 -0.03,-94.11l2078.04 -2078.41c56.9,-56.9 11.76,-150.69 -67.23,-150.63l-3415.32 3.36c-18.29,0.02 -34,-6.46 -46.95,-19.35l-1101.4 -1094.16c-19.55,-19.38 -25.15,-47.12 -14.65,-72.57 10.5,-25.46 34.02,-41.19 61.54,-41.19l6067.09 0c36.64,0 66.54,29.91 66.54,66.55zm-6267.58 6173.62l-26.56 -4781.57c-0.15,-27.59 15.48,-51.19 40.91,-61.79 25.45,-10.63 53.22,-5.15 72.68,14.35l1101.2 1101.28c12.96,12.94 19.48,28.68 19.5,46.99l2.19 2129.33c0.1,80.75 82.73,111.45 138.8,55.39l988.6 -988.59c25.91,-25.93 68.18,-25.93 94.09,0l751.81 751.88c25.93,25.91 25.93,68.18 0,94.12l-348.64 348.57 -1350.6 1336.95c-12.96,12.82 -28.62,19.25 -46.82,19.25l-1370.63 0c-36.51,0 -66.34,-29.66 -66.54,-66.17z"/>
 </g>
</svg>
