<svg width="24" height="24" viewBox="0 0 24 24" fill="none" xmlns="http://www.w3.org/2000/svg">
<g id="Traced/image 3" clip-path="url(#clip0_55_890)">
<path id="Vector" fill-rule="evenodd" clip-rule="evenodd" d="M1.503 -0.0425039C0.938508 0.138104 0.433491 0.586275 0.175947 1.13506C0.0346643 1.43611 0.0345036 1.43788 0.0345036 2.80265C0.0345036 4.14738 0.0364859 4.17159 0.159284 4.34379C0.35918 4.62405 0.552593 4.6937 1.22568 4.72778C1.80935 4.7573 1.83249 4.76319 1.99312 4.92392C2.3149 5.24592 2.2483 5.79224 1.86405 5.98276C1.75636 6.03618 1.49924 6.07384 1.15287 6.08692C0.519107 6.11092 0.286958 6.21572 0.113208 6.5563C0.0236276 6.73188 0.00771514 6.87262 0.00771514 7.48849V8.21392H1.17918C2.28318 8.21392 2.35878 8.2203 2.49181 8.32499C2.64161 8.4428 2.6796 8.66959 2.58054 8.85476C2.48501 9.03322 2.22505 9.07115 1.09806 9.07115H0.00771514V9.68445V10.2977L1.21802 10.314C2.41627 10.3301 2.42934 10.3315 2.53065 10.4567C2.67317 10.6328 2.66111 10.8695 2.50146 11.0291L2.36998 11.1607H1.18882H0.00771514V11.7768V12.3929H1.09806C2.22505 12.3929 2.48501 12.4309 2.58054 12.6093C2.67033 12.7771 2.63856 12.9816 2.50146 13.1186L2.36998 13.2502H1.18882H0.00771514V13.8931V14.536H1.20387C2.38487 14.536 2.40148 14.5376 2.51651 14.66C2.67124 14.8247 2.66792 15.0739 2.50901 15.2232C2.38932 15.3356 2.34314 15.3397 1.19252 15.3397H0L0.0172519 16.1396C0.0370218 17.0551 0.0732934 17.1487 0.490979 17.3622C0.686107 17.4619 0.813941 17.4827 1.2297 17.4827C1.60736 17.4827 1.77093 17.5055 1.8872 17.5741C2.11313 17.7076 2.22136 17.9737 2.19226 18.3243C2.17255 18.562 2.13713 18.6463 1.99847 18.7849C1.83126 18.9521 1.81963 18.955 1.19487 18.9825C0.604777 19.0086 0.547289 19.0208 0.364591 19.1602C0.00728648 19.4327 -0.00107147 19.4761 0.0181091 20.9557C0.0349323 22.2577 0.0373967 22.2825 0.177554 22.5821C0.439224 23.1414 0.973387 23.6024 1.5578 23.7733C1.81899 23.8497 2.8661 23.8584 11.7947 23.8584C20.7232 23.8584 21.7703 23.8497 22.0315 23.7733C22.6155 23.6026 23.1187 23.1656 23.4068 22.5792C23.5544 22.2786 23.5548 22.2749 23.5723 20.957C23.5918 19.478 23.5832 19.4337 23.2242 19.1598C23.0431 19.0216 22.9804 19.0075 22.4339 18.9825C22.1074 18.9676 21.7879 18.9256 21.724 18.8891C21.4838 18.7524 21.3849 18.5587 21.3849 18.2248C21.3849 17.9412 21.4031 17.8899 21.567 17.7111L21.749 17.5125L22.3572 17.4836C23.0219 17.452 23.228 17.3774 23.442 17.0906C23.5427 16.9558 23.5567 16.8535 23.572 16.1396L23.5893 15.3397H22.3893C21.2042 15.3397 21.1879 15.3381 21.0728 15.2157C20.9181 15.0509 20.9214 14.8018 21.0803 14.6525C21.1999 14.5401 21.2463 14.536 22.3929 14.536H23.5816V13.8931V13.2502H22.4101C21.3061 13.2502 21.2305 13.2438 21.0975 13.1391C20.9477 13.0213 20.9097 12.7945 21.0088 12.6093C21.1043 12.4309 21.3642 12.3929 22.4912 12.3929H23.5816V11.7768V11.1607H22.4005H21.2193L21.0878 11.0291C20.9282 10.8695 20.9161 10.6328 21.0586 10.4567C21.16 10.3315 21.173 10.3301 22.3713 10.314L23.5816 10.2977V9.68445V9.07115H22.4912C21.3642 9.07115 21.1043 9.03322 21.0088 8.85476C20.9097 8.66959 20.9477 8.4428 21.0975 8.32499C21.2305 8.2203 21.3061 8.21392 22.4101 8.21392H23.5816V7.48533C23.5816 6.64181 23.5262 6.46356 23.1965 6.24534C23.0152 6.12538 22.9195 6.10535 22.4414 6.08718C22.0909 6.0739 21.8332 6.03629 21.7253 5.98276C21.341 5.79224 21.2744 5.24592 21.5962 4.92392C21.7568 4.76319 21.78 4.7573 22.3636 4.72778C23.0367 4.6937 23.2301 4.62405 23.43 4.34379C23.5528 4.17159 23.5548 4.14738 23.5548 2.80265V1.43643L23.3974 1.11529C23.1106 0.53018 22.6336 0.120477 22.0315 -0.0578804C21.7685 -0.135781 20.7824 -0.143818 11.7715 -0.141193C2.34672 -0.13846 1.7862 -0.133103 1.503 -0.0425039ZM5.4319 1.78442C5.33584 1.84298 5.2094 1.96942 5.15084 2.06548C5.05059 2.2298 5.04433 2.33819 5.04416 3.90644C5.04395 5.54665 5.04583 5.57558 5.1645 5.74944C5.37945 6.06431 5.56927 6.12442 6.34844 6.12442C7.14551 6.12442 7.35692 6.04931 7.55575 5.69559C7.66429 5.50245 7.66922 5.42412 7.66922 3.89283C7.66922 2.1077 7.65829 2.04657 7.29424 1.79808C7.13158 1.68707 7.05775 1.67753 6.36205 1.67775C5.70268 1.67791 5.58427 1.69146 5.4319 1.78442ZM10.928 2.50653C10.606 2.72534 10.552 2.95138 10.572 3.99511C10.591 4.9805 10.6134 5.05074 10.9905 5.30737L11.1676 5.42792H14.661H18.1545L18.3316 5.30737C18.7114 5.04886 18.731 4.98527 18.7496 3.95536C18.765 3.10745 18.7569 3.00731 18.6576 2.81256C18.5977 2.69517 18.4668 2.54848 18.3666 2.4866C18.1864 2.37521 18.1474 2.37403 14.6537 2.37403H11.123L10.928 2.50653ZM5.84761 3.86717V5.25315L6.04852 5.28637C6.15905 5.30464 6.37604 5.31985 6.53071 5.32018L6.81199 5.32077V3.90098V2.48119H6.3298H5.84761V3.86717ZM11.4196 3.90098V4.62426H14.661H17.9024V3.90098V3.17769H14.661H11.4196V3.90098ZM12.5406 7.7276C12.3896 7.87864 12.384 7.90226 12.384 8.39137V8.89847L12.198 8.93335C11.8807 8.99293 11.5268 9.37226 11.5268 9.65284C11.5268 9.74869 11.4807 9.75919 10.9863 9.77601C10.4709 9.79359 10.4398 9.80141 10.3166 9.94478C10.1516 10.1367 10.1523 10.3268 10.3189 10.4934C10.441 10.6156 10.4886 10.6249 10.9886 10.6249H11.5268V11.0218V11.4188L10.9594 11.4371C10.439 11.4538 10.3835 11.4658 10.2897 11.5818C10.2334 11.6514 10.1873 11.7753 10.1873 11.8572C10.1873 11.939 10.2334 12.0629 10.2897 12.1325C10.3835 12.2485 10.439 12.2605 10.9594 12.2773L11.5268 12.2955V12.6925V13.0894H10.9886C10.4886 13.0894 10.441 13.0987 10.3189 13.221C10.1741 13.3657 10.1483 13.5961 10.2604 13.7437C10.3728 13.8916 10.5935 13.9467 11.0748 13.9467C11.4947 13.9467 11.5268 13.9544 11.5268 14.0565C11.5268 14.3419 11.878 14.7209 12.198 14.781L12.384 14.8158V15.2895C12.384 15.5501 12.4112 15.823 12.4445 15.8961C12.5659 16.1625 12.9948 16.2034 13.1621 15.9645C13.2188 15.8836 13.2412 15.703 13.2412 15.3277V14.8039H13.6431H14.0449V15.3421C14.0449 15.8421 14.0542 15.8896 14.1764 16.0118C14.3533 16.1887 14.5523 16.18 14.7455 15.9867C14.8968 15.8354 14.9021 15.8127 14.9021 15.317V14.8039H15.3039H15.7058V15.3421C15.7058 15.8421 15.7151 15.8896 15.8373 16.0118C15.998 16.1725 16.181 16.1796 16.3682 16.0322C16.5044 15.9251 16.5094 15.9017 16.5094 15.3694V14.8176L16.7223 14.7835C17.0168 14.7364 17.2993 14.4774 17.3723 14.1875L17.4299 13.9587L17.9674 13.9371C18.4807 13.9165 18.5107 13.9087 18.6372 13.7617C18.7396 13.6425 18.7623 13.5703 18.7376 13.4423C18.6812 13.1499 18.5464 13.0894 17.9501 13.0894H17.4202V12.6876V12.2858H17.8999C18.1637 12.2858 18.4394 12.2586 18.5124 12.2252C18.81 12.0897 18.81 11.6246 18.5124 11.4891C18.4394 11.4558 18.1637 11.4285 17.8999 11.4285H17.4202V11.0267V10.6249H17.9248C18.2023 10.6249 18.4685 10.6099 18.5161 10.5916C18.6444 10.5424 18.767 10.2711 18.7292 10.1203C18.6641 9.86098 18.5262 9.79964 17.9571 9.77676L17.4299 9.7556L17.3723 9.52677C17.2993 9.23692 17.0168 8.97788 16.7223 8.93078L16.5094 8.89671V8.34492C16.5094 7.80749 16.5056 7.79007 16.3629 7.67783C16.1871 7.53949 15.9426 7.56553 15.7995 7.73784C15.7241 7.8286 15.7058 7.95472 15.7058 8.3806V8.91042H15.3039H14.9021V8.4585C14.9021 7.93768 14.8536 7.77261 14.6638 7.64826C14.5045 7.54383 14.3073 7.57646 14.1507 7.73307C14.0595 7.82431 14.0449 7.9126 14.0449 8.37465V8.91042H13.6431H13.2412L13.2405 8.44162C13.2396 7.85206 13.2105 7.7463 13.0228 7.64922C12.8053 7.53676 12.7171 7.55112 12.5406 7.7276ZM5.60651 8.6098C5.00832 8.8711 4.68686 9.59256 4.90915 10.1747C5.19166 10.9145 5.998 11.2403 6.67896 10.8898C7.86408 10.28 7.42679 8.52885 6.09159 8.53747C5.91318 8.53865 5.69491 8.57117 5.60651 8.6098ZM5.81808 9.20783C5.37709 9.42546 5.36145 10.1065 5.79226 10.3293C6.1313 10.5046 6.49889 10.382 6.67912 10.0334C6.78585 9.82712 6.77867 9.66757 6.6534 9.46221C6.46519 9.1535 6.13312 9.05235 5.81808 9.20783ZM12.3304 11.8572V13.9467H14.4467H16.563V11.8572V9.76765H14.4467H12.3304V11.8572ZM5.79371 12.7109C4.83398 13.0028 4.53309 14.1351 5.23008 14.8321C5.68034 15.2823 6.30178 15.3341 6.83701 14.9659C7.31776 14.6351 7.49515 13.8931 7.22169 13.3573C6.96002 12.8447 6.31448 12.5525 5.79371 12.7109ZM5.78133 13.3876C5.59735 13.4874 5.47257 13.7234 5.47257 13.9716C5.47257 14.2443 5.74474 14.5333 6.03518 14.5689C6.44713 14.6195 6.81344 14.2301 6.73704 13.8228C6.68673 13.5546 6.38986 13.303 6.12701 13.3059C6.01755 13.3071 5.86196 13.3438 5.78133 13.3876ZM5.47171 17.6891C5.36906 17.7437 5.23083 17.8678 5.1645 17.9649C5.04583 18.1387 5.04395 18.1677 5.04416 19.8079C5.04433 21.3761 5.05059 21.4845 5.15084 21.6488C5.35598 21.9854 5.51527 22.0364 6.36205 22.0366C7.05775 22.0368 7.13158 22.0272 7.29424 21.9162C7.65829 21.6677 7.66922 21.6066 7.66922 19.8215C7.66922 18.2902 7.66429 18.2119 7.55575 18.0187C7.35692 17.665 7.14551 17.5899 6.34844 17.5899C5.77978 17.5899 5.62558 17.6074 5.47171 17.6891ZM10.9905 18.4069C10.6134 18.6636 10.591 18.7338 10.572 19.7192C10.552 20.7629 10.606 20.989 10.928 21.2078L11.123 21.3403H14.6537C18.1474 21.3403 18.1864 21.3391 18.3666 21.2277C18.4668 21.1658 18.5977 21.0191 18.6576 20.9018C18.7569 20.707 18.765 20.6069 18.7496 19.759C18.731 18.729 18.7114 18.6655 18.3316 18.4069L18.1545 18.2864H14.661H11.1676L10.9905 18.4069ZM5.88334 18.4293C5.86368 18.4489 5.84761 19.0878 5.84761 19.8491V21.2331H6.3298H6.81199V19.8468V18.4605L6.64456 18.427C6.42297 18.3827 5.9284 18.3842 5.88334 18.4293ZM11.4196 19.8133V20.5366H14.661H17.9024V19.8133V19.09H14.661H11.4196V19.8133Z" fill="white"/>
</g>
<defs>
<clipPath id="clip0_55_890">
<rect width="24" height="24" fill="white"/>
</clipPath>
</defs>
</svg>
