<svg width="20" height="20" viewBox="0 0 20 20" fill="currentColor"
	xmlns="http://www.w3.org/2000/svg">
	<g id="Plus sm">
		<path id="Vector" d="M15.6036 4.325C14.1071 2.825 12.1143 2 9.99643 2C5.625 2 2.06786 5.55714 2.06786 9.92857C2.06786 11.325 2.43214 12.6893 3.125 13.8929L2 18L6.20357 16.8964C7.36071 17.5286 8.66429 17.8607 9.99286 17.8607H9.99643C14.3643 17.8607 18 14.3036 18 9.93214C18 7.81429 17.1 5.825 15.6036 4.325ZM9.99643 16.525C8.81071 16.525 7.65 16.2071 6.63929 15.6071L6.4 15.4643L3.90714 16.1179L4.57143 13.6857L4.41429 13.4357C3.75357 12.3857 3.40714 11.175 3.40714 9.92857C3.40714 6.29643 6.36429 3.33929 10 3.33929C11.7607 3.33929 13.4143 4.025 14.6571 5.27143C15.9 6.51786 16.6643 8.17143 16.6607 9.93214C16.6607 13.5679 13.6286 16.525 9.99643 16.525ZM13.6107 11.5893C13.4143 11.4893 12.4393 11.0107 12.2571 10.9464C12.075 10.8786 11.9429 10.8464 11.8107 11.0464C11.6786 11.2464 11.3 11.6893 11.1821 11.825C11.0679 11.9571 10.95 11.975 10.7536 11.875C9.58929 11.2929 8.825 10.8357 8.05714 9.51786C7.85357 9.16786 8.26071 9.19286 8.63929 8.43571C8.70357 8.30357 8.67143 8.18929 8.62143 8.08929C8.57143 7.98929 8.175 7.01429 8.01071 6.61786C7.85 6.23214 7.68571 6.28571 7.56429 6.27857C7.45 6.27143 7.31786 6.27143 7.18571 6.27143C7.05357 6.27143 6.83929 6.32143 6.65714 6.51786C6.475 6.71786 5.96429 7.19643 5.96429 8.17143C5.96429 9.14643 6.675 10.0893 6.77143 10.2214C6.87143 10.3536 8.16786 12.3536 10.1571 13.2143C11.4143 13.7571 11.9071 13.8036 12.5357 13.7107C12.9179 13.6536 13.7071 13.2321 13.8714 12.7679C14.0357 12.3036 14.0357 11.9071 13.9857 11.825C13.9393 11.7357 13.8071 11.6857 13.6107 11.5893Z"/>
	</g>
</svg>
