<svg width="23" height="24" viewBox="0 0 23 24" fill="none" xmlns="http://www.w3.org/2000/svg">
<path id="Vector" fill-rule="evenodd" clip-rule="evenodd" d="M10.7866 0.06783C8.44341 0.510531 6.6102 2.24054 6.04685 4.54081C5.89184 5.17377 5.85644 6.16465 5.9652 6.82535C6.38332 9.36508 8.31262 11.305 10.8629 11.7501C11.2293 11.814 11.5401 11.8294 12.0467 11.8088C13.1665 11.7632 14.0992 11.4714 15.0115 10.8814C16.7145 9.78008 17.7278 7.92399 17.7278 5.90575C17.7278 3.88752 16.7145 2.03142 15.0115 0.930084C14.4473 0.565228 13.9328 0.341895 13.2397 0.161211C12.5914 -0.00779443 11.4226 -0.0522917 10.7866 0.06783ZM11.1658 1.73204C10.5306 1.83927 9.81385 2.13838 9.31523 2.50435C8.59878 3.03028 7.96626 3.96061 7.73114 4.83433C7.57608 5.41057 7.57608 6.40093 7.73114 6.97718C7.96626 7.8509 8.59878 8.78122 9.31523 9.30715C10.9804 10.5295 13.3241 10.3486 14.7879 8.88475C16.4429 7.22978 16.4334 4.55138 14.7666 2.90361C13.8354 1.98296 12.4158 1.52113 11.1658 1.73204ZM18.3309 11.0938C17.4126 11.17 16.5346 11.5934 15.8265 12.3015C15.3203 12.8077 15.0135 13.2999 14.7949 13.9562C14.557 14.6707 14.5373 15.6769 14.7467 16.4094C14.8383 16.7297 15.1287 17.3488 15.3005 17.5901C15.3982 17.7272 15.4025 17.8507 15.4029 20.4469C15.403 22.2535 15.4225 23.2302 15.4611 23.3693C15.5857 23.8179 16.0875 24.1053 16.499 23.9636C16.612 23.9246 17.172 23.579 17.7435 23.1953L18.7825 22.4979L19.8854 23.2447C20.924 23.9478 21.0035 23.9916 21.2474 23.9946C21.5591 23.9984 21.798 23.8836 21.9646 23.65L22.0877 23.4774L22.1168 17.7943L22.3059 17.4986C23.5523 15.5502 22.95 12.9199 20.9757 11.6894C20.2183 11.2174 19.3092 11.0126 18.3309 11.0938ZM18.1021 12.8598C17.7032 12.9671 17.3257 13.1969 17.0078 13.526C16.5235 14.0273 16.3003 14.5746 16.3016 15.2576C16.3049 17.0941 18.2545 18.2839 19.8968 17.4517C20.2192 17.2883 20.6949 16.859 20.8846 16.5601C21.2146 16.0403 21.3322 15.3394 21.1938 14.7175C20.8868 13.3374 19.4768 12.4902 18.1021 12.8598ZM6.7356 13.5509C6.34009 13.5935 5.48519 13.7953 5.05078 13.9486C2.91544 14.702 1.1561 16.4638 0.400389 18.6056C0.0579921 19.5758 0.00382366 19.9865 0.000547133 21.6369C-0.00230662 23.0605 0.00234396 23.1321 0.106559 23.2719C0.166487 23.3523 0.281166 23.4671 0.36144 23.527C0.506664 23.6354 0.535255 23.636 5.96932 23.636C11.4034 23.636 11.432 23.6354 11.5772 23.527C11.8545 23.32 11.9411 23.1511 11.9411 22.8168C11.9411 22.4826 11.8545 22.3137 11.5772 22.1067C11.4326 21.9987 11.3867 21.9976 6.54678 21.9837L1.66227 21.9697L1.66243 21.4288C1.6628 19.9945 1.97804 18.8947 2.6994 17.8106C3.37785 16.7909 4.41434 15.9885 5.60573 15.5606C6.43696 15.2621 6.58546 15.2473 9.09676 15.2126C11.3461 15.1816 11.4368 15.1765 11.5773 15.0715C11.8546 14.8643 11.9411 14.6955 11.9411 14.3613C11.9411 14.0271 11.8545 13.8582 11.5772 13.6511C11.4355 13.5453 11.367 13.542 9.17598 13.5366C7.9355 13.5336 6.83733 13.54 6.7356 13.5509ZM17.1465 21.5452L17.7641 21.1235C18.4355 20.6649 18.6847 20.5647 18.9624 20.6413C19.0591 20.6681 19.4274 20.8836 19.7807 21.1202L20.423 21.5506V19.1287L20.0135 19.266C19.6426 19.3904 19.5264 19.4033 18.7848 19.4033C18.0431 19.4033 17.9269 19.3904 17.5561 19.266L17.1465 19.1287V21.5452Z" fill="white"/>
</svg>
